<svg width="702" height="656" viewBox="0 0 702 656" fill="none" xmlns="http://www.w3.org/2000/svg">
<path d="M347.382 92.4312L329.95 96.2811L328.608 90.2026C328.097 87.891 328.526 85.4713 329.799 83.4758C331.073 81.4802 333.087 80.0723 335.398 79.5618C337.71 79.0513 340.13 79.4799 342.125 80.7534C344.121 82.027 345.529 84.041 346.039 86.3526L347.382 92.4312ZM330.251 95.8099L346.91 92.1304L345.653 86.4379C345.165 84.2287 343.82 82.3038 341.913 81.0866C340.005 79.8695 337.693 79.4598 335.484 79.9478C333.274 80.4357 331.35 81.7812 330.132 83.6884C328.915 85.5956 328.506 87.9081 328.994 90.1173L330.251 95.8099Z" fill="#3F3D56"/>
<path d="M355.816 89.6913L355.292 87.3157L311.224 98.2946L323.11 158.776L331.461 165.432L355.816 89.6913Z" fill="#3F3D56"/>
<path d="M363.479 87.1219L315.671 98.8275C321.838 124.838 325.295 139.421 331.461 165.432L376.727 150.193L363.479 87.1219Z" fill="#00B0FF"/>
<path d="M349.779 99.8078C349.779 99.8078 348.91 106.681 352.181 108.971L351.655 117.024C351.655 117.024 364.648 138.773 363.141 142.544C363.141 142.544 355.733 148.557 337.824 146.572L338.782 118.773L335.363 107.883L335.55 102.371L338.458 101.416C338.458 101.416 338.155 108.517 341.657 108.838C345.16 109.158 346.447 99.8273 346.447 99.8273L349.779 99.8078Z" fill="#3F3D56"/>
</svg>
