<svg width="702" height="656" viewBox="0 0 702 656" fill="none" xmlns="http://www.w3.org/2000/svg">
<path opacity="0.1" d="M656.114 318.085C629.391 360.706 634.777 418.911 646.876 464.865C650.929 480.247 655.587 496.497 652.301 513.685C648.279 534.686 633.266 551.114 618.029 560.46C590.251 577.508 558.427 576.842 535.16 558.739C515.056 543.094 501.725 515.94 481.202 501.131C446.859 476.333 400.054 490.987 359.441 513.747C330.71 529.85 299.112 550.285 272.419 538.467C253.64 530.152 241.82 506.928 236.224 481.696C233.519 469.514 231.861 456.216 225.769 446.909C222.149 441.376 217.189 437.657 212.051 434.611C165.183 406.768 102.118 429.474 56.8859 397.988C26.3412 376.724 8.79416 333.073 2.84178 286.461C-3.11059 239.849 1.29168 190.036 6.85653 140.999C10.817 106.127 16.2424 68.8376 34.7583 40.576C54.367 10.6792 85.4774 -2.54879 112.596 0.403687C139.715 3.35616 163.347 20.3503 183.746 41.0177C209.245 66.846 232.295 99.7882 265.126 108.258C287.501 114.024 311.877 107.63 335.593 104.066C375.291 98.0989 414.431 100.098 453.3 102.655C490.502 105.081 527.945 108.08 562.675 121.091C587.251 130.305 606.178 149.306 629.135 161.72C644.101 169.811 660.912 170.927 674.863 181.683C692.061 194.934 707.012 219.305 700.331 249.969C694.014 279.099 670.313 295.535 656.114 318.085Z" fill="#00B0FF"/>
</svg>
