<svg width="702" height="656" viewBox="0 0 702 656" fill="none" xmlns="http://www.w3.org/2000/svg">
<path d="M233.296 376.169L200.812 380.915L200.778 380.681L233.028 375.969L231.372 364.635L201.853 368.948L199.982 366.17L200.178 366.038L201.966 368.693L231.572 364.367L233.296 376.169Z" fill="#3F3D56"/>
<path d="M205.972 386.009C207.327 385.811 208.265 384.552 208.067 383.196C207.869 381.841 206.61 380.903 205.255 381.101C203.9 381.299 202.962 382.558 203.16 383.913C203.358 385.269 204.617 386.207 205.972 386.009Z" fill="#00B0FF"/>
<path d="M230.16 382.475C231.515 382.277 232.453 381.018 232.255 379.663C232.057 378.307 230.798 377.369 229.443 377.567C228.087 377.765 227.149 379.024 227.347 380.38C227.545 381.735 228.804 382.673 230.16 382.475Z" fill="#00B0FF"/>
<path d="M250.92 325.26C251.759 325.137 252.34 324.358 252.217 323.519C252.095 322.68 251.315 322.099 250.476 322.222C249.637 322.344 249.057 323.124 249.179 323.963C249.302 324.802 250.081 325.382 250.92 325.26Z" fill="#00B0FF"/>
<path d="M234.517 360.237L198.005 365.572L186.332 340.902L238.88 333.225L238.855 333.384L234.517 360.237ZM198.143 365.313L234.311 360.028L238.596 333.505L186.682 341.09L198.143 365.313Z" fill="#3F3D56"/>
<path d="M231.47 359.31L199.4 363.995L189.115 342.107L235.271 335.363L235.248 335.504L231.47 359.31Z" fill="#F96381"/>
<path d="M239.198 330.823L238.963 330.796L239.656 324.758L248.627 323.447L248.661 323.681L239.87 324.965L239.198 330.823Z" fill="#3F3D56"/>
<path d="M237.398 341.437L190.028 348.358L190.063 348.592L237.432 341.671L237.398 341.437Z" fill="#3F3D56"/>
<path d="M235.943 350.444L193.92 356.583L193.954 356.817L235.977 350.677L235.943 350.444Z" fill="#3F3D56"/>
<path d="M212.739 337.163L212.505 337.198L216.244 362.788L216.478 362.753L212.739 337.163Z" fill="#3F3D56"/>
<path d="M223.201 335.627L225.262 361.462L225.498 361.443L223.437 335.609L223.201 335.627Z" fill="#3F3D56"/>
<path d="M202.046 338.718L201.815 338.767L207.222 364.113L207.453 364.064L202.046 338.718Z" fill="#3F3D56"/>
</svg>
