<svg width="702" height="656" viewBox="0 0 702 656" fill="none" xmlns="http://www.w3.org/2000/svg">
<path d="M196.254 231.391L201.463 254.826L207.924 283.886L183.361 289.995L174.1 256.368L169.082 238.149L196.254 231.391Z" fill="#E6E6E6"/>
<path d="M181.216 221.974L177.738 222.839L189.2 268.923L192.678 268.058L181.216 221.974Z" fill="#00B0FF"/>
<path d="M198.879 249.372L206.454 282.638L184.065 288.207L173.648 249.615C175.525 248.547 177.601 247.876 179.747 247.646C181.894 247.415 184.065 247.629 186.126 248.274C190.417 249.556 194.915 249.702 198.879 249.372Z" fill="#3F3D56"/>
<path d="M182.301 257.452L179.11 258.246L179.904 261.437L183.095 260.643L182.301 257.452Z" fill="#E6E6E6"/>
<path d="M182.853 250.391L179.662 251.184L180.456 254.375L183.647 253.581L182.853 250.391Z" fill="#E6E6E6"/>
<path d="M190.829 253.2L187.793 251.937L186.529 254.973L189.566 256.236L190.829 253.2Z" fill="#E6E6E6"/>
<path d="M198.002 257.421L194.965 256.158L193.702 259.194L196.738 260.457L198.002 257.421Z" fill="#E6E6E6"/>
<path d="M189.031 263.114L185.994 261.85L184.731 264.887L187.767 266.15L189.031 263.114Z" fill="#E6E6E6"/>
</svg>
