<svg width="702" height="656" viewBox="0 0 702 656" fill="none" xmlns="http://www.w3.org/2000/svg">
<path d="M256.577 213.698C276.875 213.698 293.33 197.2 293.33 176.849C293.33 156.498 276.875 140 256.577 140C236.279 140 219.824 156.498 219.824 176.849C219.824 197.2 236.279 213.698 256.577 213.698Z" fill="#3F3D56"/>
<path opacity="0.2" d="M256.577 203.745C250.371 203.745 244.357 201.588 239.559 197.64C234.761 193.692 231.478 188.199 230.267 182.096C229.056 175.993 229.993 169.658 232.919 164.17C235.845 158.683 240.578 154.382 246.312 152C252.046 149.619 258.426 149.305 264.365 151.111C270.304 152.918 275.434 156.733 278.882 161.907C282.331 167.08 283.883 173.293 283.274 179.485C282.666 185.678 279.935 191.468 275.546 195.868C273.061 198.373 270.105 200.359 266.849 201.711C263.593 203.064 260.102 203.755 256.577 203.745ZM256.577 151.612C242.697 151.612 231.405 162.933 231.405 176.849C231.405 190.765 242.697 202.086 256.577 202.086C270.457 202.086 281.749 190.765 281.749 176.849C281.749 162.933 270.457 151.612 256.577 151.612Z" fill="black"/>
<path d="M256.577 202.916C270.936 202.916 282.576 191.245 282.576 176.849C282.576 162.453 270.936 150.782 256.577 150.782C242.218 150.782 230.578 162.453 230.578 176.849C230.578 191.245 242.218 202.916 256.577 202.916Z" fill="#3F3D56"/>
<path d="M237.242 166.426C237.045 166.039 236.926 165.616 236.892 165.183C236.858 164.75 236.909 164.314 237.043 163.9C237.177 163.487 237.39 163.104 237.672 162.773C237.954 162.443 238.297 162.171 238.684 161.974C239.07 161.776 239.491 161.657 239.924 161.624C240.356 161.59 240.791 161.641 241.203 161.776C241.615 161.911 241.997 162.126 242.327 162.408C242.656 162.691 242.927 163.036 243.123 163.424L250.468 177.885C250.665 178.272 250.785 178.695 250.819 179.128C250.853 179.561 250.802 179.997 250.668 180.411C250.534 180.824 250.32 181.207 250.039 181.538C249.757 181.869 249.413 182.14 249.027 182.338C248.641 182.535 248.219 182.654 247.787 182.688C247.355 182.722 246.92 182.67 246.508 182.535C246.095 182.4 245.714 182.186 245.384 181.903C245.055 181.62 244.784 181.275 244.588 180.888L237.242 166.426Z" fill="#FF6584"/>
<path opacity="0.2" d="M238.062 168.039L237.723 167.372C239.415 166.053 241.401 165.084 243.603 164.369L243.942 165.037C241.559 165.534 239.532 166.455 238.062 168.039Z" fill="black"/>
<path opacity="0.2" d="M239.644 171.154L239.305 170.486C240.997 169.168 242.983 168.199 245.185 167.484L245.524 168.151C243.141 168.649 241.114 169.57 239.644 171.154Z" fill="black"/>
<path opacity="0.2" d="M241.226 174.269L240.887 173.601C242.579 172.283 244.566 171.314 246.767 170.599L247.106 171.266C244.723 171.764 242.696 172.685 241.226 174.269Z" fill="black"/>
<path opacity="0.2" d="M242.808 177.383L242.469 176.716C244.161 175.398 246.148 174.429 248.349 173.714L248.688 174.381C246.305 174.879 244.278 175.799 242.808 177.383Z" fill="black"/>
<path opacity="0.2" d="M244.39 180.498L244.051 179.831C245.743 178.513 247.73 177.543 249.932 176.828L250.271 177.496C247.887 177.993 245.86 178.914 244.39 180.498Z" fill="black"/>
<path d="M231.732 171.84C231.535 171.453 231.415 171.03 231.381 170.597C231.347 170.164 231.398 169.728 231.532 169.314C231.666 168.901 231.88 168.518 232.161 168.187C232.443 167.857 232.787 167.585 233.173 167.388C233.56 167.191 233.981 167.072 234.413 167.038C234.845 167.004 235.28 167.056 235.692 167.19C236.105 167.325 236.486 167.54 236.816 167.822C237.145 168.105 237.416 168.45 237.612 168.837L244.958 183.299C245.354 184.081 245.424 184.988 245.153 185.822C244.882 186.656 244.292 187.347 243.513 187.745C242.734 188.143 241.829 188.215 240.997 187.944C240.165 187.673 239.475 187.082 239.077 186.302L231.732 171.84Z" fill="#FF6584"/>
<path opacity="0.2" d="M232.551 173.453L232.212 172.785C233.904 171.467 235.891 170.498 238.092 169.783L238.431 170.45C236.048 170.948 234.021 171.869 232.551 173.453Z" fill="black"/>
<path opacity="0.2" d="M234.133 176.568L233.794 175.9C235.486 174.582 237.473 173.613 239.675 172.898L240.014 173.565C237.63 174.063 235.603 174.984 234.133 176.568Z" fill="black"/>
<path opacity="0.2" d="M235.715 179.683L235.376 179.015C237.068 177.697 239.055 176.728 241.257 176.013L241.596 176.68C239.213 177.178 237.185 178.098 235.715 179.683Z" fill="black"/>
<path opacity="0.2" d="M237.297 182.797L236.958 182.13C238.65 180.812 240.637 179.843 242.839 179.128L243.178 179.795C240.795 180.293 238.767 181.213 237.297 182.797Z" fill="black"/>
<path opacity="0.2" d="M238.879 185.912L238.54 185.245C240.232 183.927 242.219 182.957 244.421 182.242L244.76 182.91C242.377 183.407 240.349 184.328 238.879 185.912Z" fill="black"/>
<path d="M273.949 177.678L273.973 177.678C274.764 177.685 275.538 177.453 276.196 177.011C276.853 176.57 277.363 175.94 277.658 175.204C278.264 173.666 278.57 172.026 278.558 170.373C278.517 163.375 272.838 157.634 265.859 157.537C262.887 157.495 259.992 158.485 257.664 160.339C255.337 162.193 253.721 164.797 253.089 167.71C252.458 170.622 252.851 173.664 254.201 176.319C255.551 178.974 257.775 181.08 260.496 182.279C261.215 182.598 262.014 182.692 262.787 182.548C263.561 182.404 264.273 182.029 264.83 181.473C266.025 180.268 267.446 179.313 269.011 178.662C270.576 178.01 272.255 177.676 273.949 177.678Z" fill="#E6E6E6"/>
<path d="M267.331 173.768C269.681 173.768 271.586 171.859 271.586 169.503C271.586 167.147 269.681 165.237 267.331 165.237C264.982 165.237 263.077 167.147 263.077 169.503C263.077 171.859 264.982 173.768 267.331 173.768Z" fill="#F9A825"/>
<path d="M258.085 169.023C258.362 169.023 258.586 168.798 258.586 168.521C258.586 168.243 258.362 168.018 258.085 168.018C257.808 168.018 257.584 168.243 257.584 168.521C257.584 168.798 257.808 169.023 258.085 169.023Z" fill="#3F3D56"/>
<path d="M241.54 169.497C241.817 169.497 242.041 169.272 242.041 168.995C242.041 168.717 241.817 168.492 241.54 168.492C241.263 168.492 241.039 168.717 241.039 168.995C241.039 169.272 241.263 169.497 241.54 169.497Z" fill="#3F3D56"/>
<path d="M260.756 163.816C261.033 163.816 261.257 163.591 261.257 163.313C261.257 163.036 261.033 162.811 260.756 162.811C260.479 162.811 260.255 163.036 260.255 163.313C260.255 163.591 260.479 163.816 260.756 163.816Z" fill="#3F3D56"/>
<path d="M260.742 178.299C261.019 178.299 261.243 178.074 261.243 177.797C261.243 177.519 261.019 177.294 260.742 177.294C260.465 177.294 260.241 177.519 260.241 177.797C260.241 178.074 260.465 178.299 260.742 178.299Z" fill="#3F3D56"/>
<path d="M270.669 162.778C270.946 162.778 271.17 162.553 271.17 162.275C271.17 161.998 270.946 161.773 270.669 161.773C270.392 161.773 270.168 161.998 270.168 162.275C270.168 162.553 270.392 162.778 270.669 162.778Z" fill="#3F3D56"/>
<path d="M238.288 176.522C238.565 176.522 238.789 176.297 238.789 176.02C238.789 175.742 238.565 175.517 238.288 175.517C238.011 175.517 237.787 175.742 237.787 176.02C237.787 176.297 238.011 176.522 238.288 176.522Z" fill="#3F3D56"/>
<path d="M241.952 183.75C242.229 183.75 242.453 183.525 242.453 183.247C242.453 182.97 242.229 182.745 241.952 182.745C241.675 182.745 241.451 182.97 241.451 183.247C241.451 183.525 241.675 183.75 241.952 183.75Z" fill="#3F3D56"/>
<path d="M264.968 186.091C266.012 186.091 266.859 185.242 266.859 184.195C266.859 183.148 266.012 182.299 264.968 182.299C263.924 182.299 263.077 183.148 263.077 184.195C263.077 185.242 263.924 186.091 264.968 186.091Z" fill="#FF6584"/>
<path opacity="0.2" d="M266.386 184.314C266.386 184.691 266.237 185.052 265.971 185.319C265.705 185.586 265.344 185.735 264.968 185.735C264.592 185.735 264.231 185.586 263.965 185.319C263.699 185.052 263.55 184.691 263.55 184.314" fill="black"/>
<path opacity="0.2" d="M263.55 184.077C263.55 183.7 263.699 183.338 263.965 183.071C264.231 182.805 264.592 182.655 264.968 182.655C265.344 182.655 265.705 182.805 265.971 183.071C266.237 183.338 266.386 183.7 266.386 184.077" fill="black"/>
<path d="M264.259 183.721C264.324 183.721 264.377 183.642 264.377 183.543C264.377 183.445 264.324 183.366 264.259 183.366C264.194 183.366 264.141 183.445 264.141 183.543C264.141 183.642 264.194 183.721 264.259 183.721Z" fill="#FF6584"/>
<path d="M264.968 183.484C265.033 183.484 265.086 183.405 265.086 183.306C265.086 183.208 265.033 183.129 264.968 183.129C264.903 183.129 264.85 183.208 264.85 183.306C264.85 183.405 264.903 183.484 264.968 183.484Z" fill="#FF6584"/>
<path d="M264.968 185.025C265.033 185.025 265.086 184.945 265.086 184.847C265.086 184.749 265.033 184.669 264.968 184.669C264.903 184.669 264.85 184.749 264.85 184.847C264.85 184.945 264.903 185.025 264.968 185.025Z" fill="#FF6584"/>
<path d="M265.677 184.077C265.742 184.077 265.795 183.997 265.795 183.899C265.795 183.801 265.742 183.721 265.677 183.721C265.612 183.721 265.559 183.801 265.559 183.899C265.559 183.997 265.612 184.077 265.677 184.077Z" fill="#FF6584"/>
<path d="M265.559 185.38C265.624 185.38 265.677 185.3 265.677 185.202C265.677 185.104 265.624 185.025 265.559 185.025C265.493 185.025 265.441 185.104 265.441 185.202C265.441 185.3 265.493 185.38 265.559 185.38Z" fill="#FF6584"/>
<path d="M264.141 184.788C264.206 184.788 264.259 184.708 264.259 184.61C264.259 184.512 264.206 184.432 264.141 184.432C264.075 184.432 264.022 184.512 264.022 184.61C264.022 184.708 264.075 184.788 264.141 184.788Z" fill="#FF6584"/>
<path d="M268.75 180.996C269.794 180.996 270.64 180.147 270.64 179.1C270.64 178.053 269.794 177.204 268.75 177.204C267.705 177.204 266.859 178.053 266.859 179.1C266.859 180.147 267.705 180.996 268.75 180.996Z" fill="#FF6584"/>
<path opacity="0.2" d="M270.168 179.219C270.168 179.596 270.018 179.957 269.752 180.224C269.486 180.491 269.126 180.641 268.75 180.641C268.373 180.641 268.013 180.491 267.747 180.224C267.481 179.957 267.331 179.596 267.331 179.219" fill="black"/>
<path opacity="0.2" d="M267.331 178.982C267.331 178.605 267.481 178.243 267.747 177.976C268.013 177.71 268.373 177.56 268.75 177.56C269.126 177.56 269.486 177.71 269.752 177.976C270.018 178.243 270.168 178.605 270.168 178.982" fill="black"/>
<path d="M268.04 178.626C268.106 178.626 268.159 178.547 268.159 178.449C268.159 178.35 268.106 178.271 268.04 178.271C267.975 178.271 267.922 178.35 267.922 178.449C267.922 178.547 267.975 178.626 268.04 178.626Z" fill="#FF6584"/>
<path d="M268.749 178.389C268.815 178.389 268.868 178.31 268.868 178.212C268.868 178.113 268.815 178.034 268.749 178.034C268.684 178.034 268.631 178.113 268.631 178.212C268.631 178.31 268.684 178.389 268.749 178.389Z" fill="#FF6584"/>
<path d="M268.749 179.93C268.815 179.93 268.868 179.85 268.868 179.752C268.868 179.654 268.815 179.574 268.749 179.574C268.684 179.574 268.631 179.654 268.631 179.752C268.631 179.85 268.684 179.93 268.749 179.93Z" fill="#FF6584"/>
<path d="M269.459 178.982C269.524 178.982 269.577 178.902 269.577 178.804C269.577 178.706 269.524 178.626 269.459 178.626C269.393 178.626 269.34 178.706 269.34 178.804C269.34 178.902 269.393 178.982 269.459 178.982Z" fill="#FF6584"/>
<path d="M269.34 180.285C269.406 180.285 269.459 180.206 269.459 180.107C269.459 180.009 269.406 179.93 269.34 179.93C269.275 179.93 269.222 180.009 269.222 180.107C269.222 180.206 269.275 180.285 269.34 180.285Z" fill="#FF6584"/>
<path d="M267.922 179.693C267.988 179.693 268.04 179.613 268.04 179.515C268.04 179.417 267.988 179.337 267.922 179.337C267.857 179.337 267.804 179.417 267.804 179.515C267.804 179.613 267.857 179.693 267.922 179.693Z" fill="#FF6584"/>
<path d="M272.531 183.603C273.575 183.603 274.422 182.754 274.422 181.707C274.422 180.66 273.575 179.811 272.531 179.811C271.487 179.811 270.64 180.66 270.64 181.707C270.64 182.754 271.487 183.603 272.531 183.603Z" fill="#00B0FF"/>
<path opacity="0.2" d="M273.949 181.825C273.949 182.203 273.8 182.564 273.534 182.831C273.268 183.097 272.907 183.247 272.531 183.247C272.155 183.247 271.794 183.097 271.528 182.831C271.262 182.564 271.113 182.203 271.113 181.825" fill="black"/>
<path opacity="0.2" d="M271.113 181.588C271.113 181.211 271.262 180.85 271.528 180.583C271.794 180.316 272.155 180.167 272.531 180.167C272.907 180.167 273.268 180.316 273.534 180.583C273.8 180.85 273.949 181.211 273.949 181.588" fill="black"/>
<path d="M271.822 181.233C271.887 181.233 271.94 181.153 271.94 181.055C271.94 180.957 271.887 180.878 271.822 180.878C271.757 180.878 271.704 180.957 271.704 181.055C271.704 181.153 271.757 181.233 271.822 181.233Z" fill="#00B0FF"/>
<path d="M272.531 180.996C272.596 180.996 272.649 180.916 272.649 180.818C272.649 180.72 272.596 180.641 272.531 180.641C272.466 180.641 272.413 180.72 272.413 180.818C272.413 180.916 272.466 180.996 272.531 180.996Z" fill="#00B0FF"/>
<path d="M272.531 182.536C272.596 182.536 272.649 182.457 272.649 182.359C272.649 182.26 272.596 182.181 272.531 182.181C272.466 182.181 272.413 182.26 272.413 182.359C272.413 182.457 272.466 182.536 272.531 182.536Z" fill="#00B0FF"/>
<path d="M273.24 181.588C273.306 181.588 273.358 181.509 273.358 181.411C273.358 181.313 273.306 181.233 273.24 181.233C273.175 181.233 273.122 181.313 273.122 181.411C273.122 181.509 273.175 181.588 273.24 181.588Z" fill="#00B0FF"/>
<path d="M273.122 182.892C273.187 182.892 273.24 182.812 273.24 182.714C273.24 182.616 273.187 182.536 273.122 182.536C273.057 182.536 273.004 182.616 273.004 182.714C273.004 182.812 273.057 182.892 273.122 182.892Z" fill="#00B0FF"/>
<path d="M271.704 182.299C271.769 182.299 271.822 182.22 271.822 182.122C271.822 182.023 271.769 181.944 271.704 181.944C271.639 181.944 271.586 182.023 271.586 182.122C271.586 182.22 271.639 182.299 271.704 182.299Z" fill="#00B0FF"/>
<path d="M263.077 183.84C264.121 183.84 264.968 182.991 264.968 181.944C264.968 180.897 264.121 180.048 263.077 180.048C262.033 180.048 261.186 180.897 261.186 181.944C261.186 182.991 262.033 183.84 263.077 183.84Z" fill="#00B0FF"/>
<path opacity="0.2" d="M264.495 182.062C264.495 182.439 264.346 182.801 264.08 183.068C263.814 183.334 263.453 183.484 263.077 183.484C262.701 183.484 262.34 183.334 262.074 183.068C261.808 182.801 261.659 182.439 261.659 182.062" fill="black"/>
<path opacity="0.2" d="M261.659 181.825C261.659 181.448 261.808 181.087 262.074 180.82C262.34 180.553 262.701 180.404 263.077 180.404C263.453 180.404 263.814 180.553 264.08 180.82C264.346 181.087 264.495 181.448 264.495 181.825" fill="black"/>
<path d="M262.368 181.47C262.433 181.47 262.486 181.39 262.486 181.292C262.486 181.194 262.433 181.115 262.368 181.115C262.303 181.115 262.25 181.194 262.25 181.292C262.25 181.39 262.303 181.47 262.368 181.47Z" fill="#00B0FF"/>
<path d="M263.077 181.233C263.142 181.233 263.195 181.153 263.195 181.055C263.195 180.957 263.142 180.878 263.077 180.878C263.012 180.878 262.959 180.957 262.959 181.055C262.959 181.153 263.012 181.233 263.077 181.233Z" fill="#00B0FF"/>
<path d="M263.077 182.773C263.142 182.773 263.195 182.694 263.195 182.596C263.195 182.497 263.142 182.418 263.077 182.418C263.012 182.418 262.959 182.497 262.959 182.596C262.959 182.694 263.012 182.773 263.077 182.773Z" fill="#00B0FF"/>
<path d="M263.786 181.825C263.851 181.825 263.904 181.746 263.904 181.648C263.904 181.55 263.851 181.47 263.786 181.47C263.721 181.47 263.668 181.55 263.668 181.648C263.668 181.746 263.721 181.825 263.786 181.825Z" fill="#00B0FF"/>
<path d="M263.668 183.129C263.733 183.129 263.786 183.049 263.786 182.951C263.786 182.853 263.733 182.773 263.668 182.773C263.603 182.773 263.55 182.853 263.55 182.951C263.55 183.049 263.603 183.129 263.668 183.129Z" fill="#00B0FF"/>
<path d="M262.25 182.536C262.315 182.536 262.368 182.457 262.368 182.359C262.368 182.26 262.315 182.181 262.25 182.181C262.184 182.181 262.132 182.26 262.132 182.359C262.132 182.457 262.184 182.536 262.25 182.536Z" fill="#00B0FF"/>
<path d="M267.331 184.669C268.376 184.669 269.222 183.82 269.222 182.773C269.222 181.726 268.376 180.878 267.331 180.878C266.287 180.878 265.441 181.726 265.441 182.773C265.441 183.82 266.287 184.669 267.331 184.669Z" fill="#00B0FF"/>
<path opacity="0.2" d="M268.75 182.892C268.75 183.079 268.713 183.263 268.642 183.436C268.57 183.608 268.466 183.765 268.334 183.897C268.202 184.029 268.046 184.134 267.874 184.205C267.702 184.277 267.518 184.314 267.331 184.314C267.145 184.314 266.961 184.277 266.789 184.205C266.617 184.134 266.46 184.029 266.329 183.897C266.197 183.765 266.092 183.608 266.021 183.436C265.95 183.263 265.913 183.079 265.913 182.892" fill="black"/>
<path opacity="0.2" d="M265.913 182.655C265.913 182.468 265.95 182.283 266.021 182.111C266.092 181.938 266.197 181.781 266.329 181.649C266.46 181.517 266.617 181.413 266.789 181.341C266.961 181.27 267.145 181.233 267.331 181.233C267.518 181.233 267.702 181.27 267.874 181.341C268.046 181.413 268.202 181.517 268.334 181.649C268.466 181.781 268.57 181.938 268.642 182.111C268.713 182.283 268.75 182.468 268.75 182.655" fill="black"/>
<path d="M266.622 182.299C266.688 182.299 266.74 182.22 266.74 182.122C266.74 182.023 266.688 181.944 266.622 181.944C266.557 181.944 266.504 182.023 266.504 182.122C266.504 182.22 266.557 182.299 266.622 182.299Z" fill="#00B0FF"/>
<path d="M267.331 182.062C267.397 182.062 267.45 181.983 267.45 181.885C267.45 181.787 267.397 181.707 267.331 181.707C267.266 181.707 267.213 181.787 267.213 181.885C267.213 181.983 267.266 182.062 267.331 182.062Z" fill="#00B0FF"/>
<path d="M267.331 183.603C267.397 183.603 267.45 183.523 267.45 183.425C267.45 183.327 267.397 183.247 267.331 183.247C267.266 183.247 267.213 183.327 267.213 183.425C267.213 183.523 267.266 183.603 267.331 183.603Z" fill="#00B0FF"/>
<path d="M268.04 182.655C268.106 182.655 268.159 182.575 268.159 182.477C268.159 182.379 268.106 182.299 268.04 182.299C267.975 182.299 267.922 182.379 267.922 182.477C267.922 182.575 267.975 182.655 268.04 182.655Z" fill="#00B0FF"/>
<path d="M267.922 183.958C267.988 183.958 268.04 183.879 268.04 183.78C268.04 183.682 267.988 183.603 267.922 183.603C267.857 183.603 267.804 183.682 267.804 183.78C267.804 183.879 267.857 183.958 267.922 183.958Z" fill="#00B0FF"/>
<path d="M266.504 183.366C266.569 183.366 266.622 183.286 266.622 183.188C266.622 183.09 266.569 183.01 266.504 183.01C266.439 183.01 266.386 183.09 266.386 183.188C266.386 183.286 266.439 183.366 266.504 183.366Z" fill="#00B0FF"/>
<path d="M270.286 186.683C271.33 186.683 272.177 185.835 272.177 184.788C272.177 183.741 271.33 182.892 270.286 182.892C269.242 182.892 268.395 183.741 268.395 184.788C268.395 185.835 269.242 186.683 270.286 186.683Z" fill="#FF6584"/>
<path opacity="0.2" d="M271.704 184.906C271.704 185.283 271.555 185.645 271.289 185.911C271.023 186.178 270.662 186.328 270.286 186.328C269.91 186.328 269.549 186.178 269.283 185.911C269.017 185.645 268.868 185.283 268.868 184.906" fill="black"/>
<path opacity="0.2" d="M268.868 184.669C268.868 184.292 269.017 183.93 269.283 183.664C269.549 183.397 269.91 183.247 270.286 183.247C270.662 183.247 271.023 183.397 271.289 183.664C271.555 183.93 271.704 184.292 271.704 184.669" fill="black"/>
<path d="M269.577 184.314C269.642 184.314 269.695 184.234 269.695 184.136C269.695 184.038 269.642 183.958 269.577 183.958C269.511 183.958 269.459 184.038 269.459 184.136C269.459 184.234 269.511 184.314 269.577 184.314Z" fill="#FF6584"/>
<path d="M270.286 184.077C270.351 184.077 270.404 183.997 270.404 183.899C270.404 183.801 270.351 183.721 270.286 183.721C270.221 183.721 270.168 183.801 270.168 183.899C270.168 183.997 270.221 184.077 270.286 184.077Z" fill="#FF6584"/>
<path d="M270.286 185.617C270.351 185.617 270.404 185.537 270.404 185.439C270.404 185.341 270.351 185.262 270.286 185.262C270.221 185.262 270.168 185.341 270.168 185.439C270.168 185.537 270.221 185.617 270.286 185.617Z" fill="#FF6584"/>
<path d="M270.995 184.669C271.06 184.669 271.113 184.589 271.113 184.491C271.113 184.393 271.06 184.314 270.995 184.314C270.93 184.314 270.877 184.393 270.877 184.491C270.877 184.589 270.93 184.669 270.995 184.669Z" fill="#FF6584"/>
<path d="M270.877 185.972C270.942 185.972 270.995 185.893 270.995 185.795C270.995 185.697 270.942 185.617 270.877 185.617C270.811 185.617 270.759 185.697 270.759 185.795C270.759 185.893 270.811 185.972 270.877 185.972Z" fill="#FF6584"/>
<path d="M269.459 185.38C269.524 185.38 269.577 185.3 269.577 185.202C269.577 185.104 269.524 185.025 269.459 185.025C269.393 185.025 269.34 185.104 269.34 185.202C269.34 185.3 269.393 185.38 269.459 185.38Z" fill="#FF6584"/>
<path d="M245.97 178.062C246.247 178.062 246.471 177.837 246.471 177.56C246.471 177.282 246.247 177.057 245.97 177.057C245.693 177.057 245.469 177.282 245.469 177.56C245.469 177.837 245.693 178.062 245.97 178.062Z" fill="#3F3D56"/>
<path d="M259.593 195.799L247.556 192.452L248.017 190.735L260.054 194.082L259.593 195.799Z" fill="#F9A825"/>
<path d="M257.828 195.225C253.707 196.016 249.472 196.016 245.35 195.225V193.445C249.482 194.132 253.697 194.132 257.828 193.445V195.225Z" fill="#F9A825"/>
<path d="M259.111 189.885C254.989 190.676 250.755 190.676 246.633 189.885V188.105C250.764 188.792 254.98 188.792 259.111 188.105V189.885Z" fill="#F9A825"/>
<path d="M263.426 192.021C259.304 192.812 255.07 192.812 250.948 192.021V190.241C255.079 190.928 259.295 190.928 263.426 190.241V192.021Z" fill="#F9A825"/>
<path d="M264.476 194.039C260.354 194.83 256.119 194.83 251.998 194.039V192.259C256.129 192.945 260.344 192.945 264.476 192.259V194.039Z" fill="#F9A825"/>
<path d="M268.135 196.675L255.824 198.748L255.539 196.992L267.849 194.919L268.135 196.675Z" fill="#F9A825"/>
<path d="M266.296 196.903C262.883 199.37 259.036 201.168 254.958 202.205L254.227 200.587C258.27 199.453 262.1 197.662 265.565 195.286L266.296 196.903Z" fill="#F9A825"/>
<path d="M265.27 191.506C261.857 193.972 258.01 195.771 253.932 196.808L253.202 195.19C257.244 194.055 261.074 192.264 264.54 189.888L265.27 191.506Z" fill="#F9A825"/>
<path d="M270.067 191.613C266.654 194.08 262.808 195.879 258.729 196.915L257.999 195.298C262.042 194.163 265.872 192.372 269.337 189.996L270.067 191.613Z" fill="#F9A825"/>
<path d="M271.849 193C268.436 195.467 264.589 197.266 260.511 198.302L259.78 196.685C263.823 195.55 267.653 193.759 271.118 191.383L271.849 193Z" fill="#F9A825"/>
<path d="M256.932 189.527H256.341V190.119H256.932V189.527Z" fill="#00BF71"/>
<path d="M258.704 199.835H258.114V200.428H258.704V199.835Z" fill="#00BF71"/>
<path d="M249.25 189.527H248.659V190.119H249.25V189.527Z" fill="#00BF71"/>
<path d="M262.959 196.873H262.368V197.466H262.959V196.873Z" fill="#00BF71"/>
<path d="M263.313 193.437H262.722V194.029H263.313V193.437Z" fill="#00BF71"/>
<path d="M253.566 191.815L252.881 191.349L252.616 191.741L253.301 192.207L253.566 191.815Z" fill="#00BF71"/>
<path d="M260.538 193.118L259.854 192.653L259.588 193.045L260.273 193.51L260.538 193.118Z" fill="#00BF71"/>
<path d="M252.03 195.37L251.345 194.904L251.08 195.296L251.764 195.762L252.03 195.37Z" fill="#00BF71"/>
<path d="M256.363 195.335L256.828 194.649L256.437 194.383L255.972 195.069L256.363 195.335Z" fill="#00BF71"/>
<path d="M259.554 196.164L260.019 195.478L259.627 195.212L259.163 195.898L259.554 196.164Z" fill="#00BF71"/>
<path d="M268.064 193.321L268.528 192.634L268.137 192.368L267.673 193.055L268.064 193.321Z" fill="#00BF71"/>
</svg>
