<svg width="702" height="656" viewBox="0 0 702 656" fill="none" xmlns="http://www.w3.org/2000/svg">
<path d="M297.796 424.469V449.111L310.448 463.763C310.448 463.763 315.775 461.765 315.775 448.445L317.772 429.131L297.796 424.469Z" fill="#FFB9B9"/>
<path d="M310.448 449.111C310.448 449.111 289.805 435.125 289.139 430.463C288.474 425.8 269.341 404.814 263.836 417.808C258.64 430.072 279.66 440.584 279.66 440.584C279.66 440.584 294.466 467.76 304.455 467.094C314.443 466.428 314.443 453.773 310.448 449.111Z" fill="#FFB9B9"/>
<path d="M322.433 598.964L324.431 610.953L313.777 608.288V598.964H322.433Z" fill="#FFB9B9"/>
<path d="M320.436 605.624C320.436 605.624 308.122 598.327 307.62 601.643C307.118 604.958 301.791 617.613 299.128 618.945C296.464 620.277 293.135 634.93 299.128 634.264C303.769 633.749 320.793 624.842 328.235 620.852C329.151 620.358 329.843 619.532 330.168 618.543C330.493 617.554 330.427 616.479 329.983 615.537C329.547 614.73 329.246 613.856 329.092 612.951C329.092 611.619 320.436 605.624 320.436 605.624Z" fill="#2F2E41"/>
<path d="M326.429 470.424C326.429 470.424 277.82 493.068 282.481 510.385C287.142 527.701 304.455 600.964 304.455 600.964C304.455 600.964 323.765 605.626 325.097 600.964C326.429 596.301 312.445 523.705 313.777 521.041C315.109 518.377 339.746 501.061 339.746 501.061L390.353 479.748L369.045 459.767L326.429 470.424Z" fill="#2F2E41"/>
<path d="M289.805 602.962L283.812 618.28L294.466 622.942L301.125 610.954L289.805 602.962Z" fill="#FFB9B9"/>
<path d="M325.763 361.197C325.763 361.197 331.756 369.189 327.095 373.185C322.434 377.181 325.763 391.834 325.763 391.834L331.756 408.484L355.728 403.822V376.515L354.396 363.195C354.396 363.195 342.41 351.873 341.078 343.215C339.746 334.556 325.763 361.197 325.763 361.197Z" fill="#FFB9B9"/>
<path d="M365.716 465.095C365.716 465.095 334.419 499.728 334.419 501.06C334.419 502.392 317.772 529.699 317.772 529.699L285.144 602.294C285.144 602.294 297.796 619.611 303.123 618.279C308.45 616.947 346.405 539.689 346.405 539.689C346.405 539.689 353.064 522.373 371.043 518.377C389.022 514.381 403.005 500.394 396.346 484.41C389.688 468.426 365.716 465.095 365.716 465.095Z" fill="#2F2E41"/>
<path d="M325.763 365.859C313.995 365.859 304.455 356.317 304.455 344.547C304.455 332.777 313.995 323.235 325.763 323.235C337.531 323.235 347.071 332.777 347.071 344.547C347.071 356.317 337.531 365.859 325.763 365.859Z" fill="#FFB9B9"/>
<path d="M326.429 379.179C326.429 379.179 329.092 394.498 331.756 395.83C334.419 397.162 336.417 401.824 342.41 395.164C348.403 388.504 353.73 375.183 353.73 375.183L374.372 400.492L376.37 470.424C376.37 470.424 353.064 464.429 345.739 470.424C338.415 476.418 322.433 475.752 322.433 475.752L325.763 462.431L323.099 439.787L323.765 419.14L324.431 404.488L326.429 379.179Z" fill="#00B0FF"/>
<path d="M328.775 367.969C328.775 367.969 319.77 372.519 319.104 375.183C318.438 377.847 306.452 383.176 306.452 383.176C306.452 383.176 301.791 387.838 301.791 390.502C301.791 393.166 317.772 423.802 317.772 423.802C317.772 423.802 321.102 444.449 319.77 448.445C318.438 452.441 322.434 467.76 322.434 467.76L314.443 477.084H321.768C321.768 477.084 329.758 473.088 329.758 471.09C329.758 469.092 328.427 455.105 327.761 449.111C327.095 443.117 327.095 421.804 328.427 414.478C329.758 407.152 329.092 387.838 329.092 383.175C329.092 378.513 328.775 367.969 328.775 367.969Z" fill="#3F3D56"/>
<path d="M349.402 357.856C349.402 357.856 352.398 358.533 361.055 361.197C369.711 363.861 383.029 367.857 387.69 373.185C390.962 377.126 393.86 381.362 396.346 385.84L393.683 433.793C393.683 433.793 399.01 443.783 398.344 449.111C397.678 454.439 392.351 455.105 396.346 466.428C400.342 477.75 408.332 487.74 401.007 489.072C393.683 490.404 374.372 485.742 365.716 488.406C357.059 491.07 347.071 478.416 347.071 478.416C347.071 478.416 360.389 479.748 358.391 474.42C356.393 469.092 334.419 409.15 339.08 395.83C343.742 382.51 349.402 357.856 349.402 357.856Z" fill="#3F3D56"/>
<path d="M305.121 387.172L301.791 389.836C301.791 389.836 292.469 423.137 295.132 426.467C297.796 429.797 319.104 437.123 320.436 432.461C321.768 427.799 305.121 387.172 305.121 387.172Z" fill="#3F3D56"/>
<path d="M403.671 410.482C403.671 410.482 413.659 439.121 413.659 447.113C413.659 455.105 412.327 501.726 412.327 501.726C412.327 501.726 405.669 529.71 391.685 521.718C377.702 513.726 397.678 500.394 397.678 500.394C397.678 500.394 397.012 447.779 391.685 440.453C386.358 433.127 384.36 422.47 384.36 422.47L403.671 410.482Z" fill="#FFB9B9"/>
<path d="M294.467 617.614C294.467 617.614 284.478 612.286 282.481 616.282C280.483 620.278 269.829 642.256 271.161 644.92C272.492 647.584 279.817 658.24 288.474 655.576C297.13 652.912 297.796 638.926 297.796 638.926L298.462 622.942L294.467 617.614Z" fill="#2F2E41"/>
<path d="M321.591 339.399C323.058 340.09 324.8 340.503 325.722 341.837C326.405 342.827 326.473 344.112 326.972 345.206C327.516 346.289 328.453 347.124 329.591 347.54C330.73 347.957 331.984 347.923 333.099 347.447C333.371 346.12 334.142 344.949 335.253 344.174C335.814 343.805 336.479 343.626 337.149 343.663C337.82 343.699 338.461 343.95 338.979 344.379C340.351 345.688 339.865 347.97 340.506 349.755C341.107 351.011 341.934 352.145 342.946 353.102C344.403 354.784 345.564 356.756 347.32 358.124C349.075 359.493 351.736 360.086 353.48 358.703C354.946 357.54 355.25 355.395 354.894 353.557C354.538 351.72 353.655 350.028 353.157 348.224C351.539 342.362 354.119 336.104 353.32 330.075C352.298 322.35 345.733 316.248 338.406 313.6C335.357 312.358 332.019 312.005 328.777 312.58C325.426 313.328 322.564 315.462 319.355 316.682C315.923 317.987 312.191 318.215 308.599 318.978C305.008 319.741 301.312 321.216 299.228 324.239C297.774 326.348 297.274 328.967 296.07 331.227C294.683 333.807 292.437 335.82 289.721 336.916L293.518 336.7C292.881 338.395 291.843 339.91 290.493 341.116C292.273 341.479 294.124 341.234 295.748 340.421C295.719 341.201 295.53 341.967 295.193 342.672C294.856 343.377 294.378 344.004 293.789 344.517C296.71 344.429 299.791 344.294 302.26 342.729C303.469 341.963 304.455 340.895 305.593 340.026C308.018 338.173 311.027 337.294 313.96 336.452C315.5 336.01 317.354 335.395 318.747 336.386C319.907 337.211 320.09 338.692 321.591 339.399Z" fill="#1D1C29"/>
<path d="M386.358 377.847L396.346 385.84L409.664 416.476C409.664 416.476 391.019 431.129 386.358 429.131C381.697 427.133 373.706 391.834 373.706 391.834L386.358 377.847Z" fill="#3F3D56"/>
<rect x="243.855" y="409.537" width="32.8397" height="2.24423" transform="rotate(31.7143 243.855 409.537)" fill="#504F5C"/>
</svg>
