<svg width="702" height="656" viewBox="0 0 702 656" fill="none" xmlns="http://www.w3.org/2000/svg">
<path d="M633.086 170.385H629.702V77.6641C629.702 63.4315 624.049 49.7819 613.988 39.7179C603.926 29.6539 590.279 24 576.05 24H379.652C365.423 24 351.776 29.6538 341.714 39.7178C331.653 49.7817 326 63.4314 326 77.664V586.336C326 600.568 331.653 614.218 341.714 624.282C351.776 634.346 365.423 640 379.652 640H576.05C590.279 640 603.926 634.346 613.987 624.282C624.049 614.218 629.702 600.569 629.702 586.336V236.385H633.086L633.086 170.385Z" fill="#504F5C"/>
<path d="M618.284 78.0383V585.962C618.285 595.635 614.787 604.983 608.437 612.279C602.087 619.575 593.312 624.327 583.732 625.658C581.904 625.914 580.061 626.041 578.215 626.039H380.867C379.021 626.041 377.178 625.914 375.35 625.658C365.772 624.325 356.999 619.572 350.65 612.276C344.302 604.98 340.805 595.634 340.807 585.962V78.0383C340.807 67.4091 345.029 57.2153 352.543 49.6993C360.057 42.1834 370.249 37.9609 380.876 37.9607H404.815C403.634 40.8518 403.183 43.9891 403.501 47.096C403.819 50.2028 404.896 53.1837 406.638 55.7757C408.38 58.3676 410.732 60.4911 413.489 61.9587C416.245 63.4262 419.32 64.1929 422.442 64.191H534.956C538.078 64.1926 541.153 63.4257 543.908 61.9578C546.664 60.49 549.016 58.3663 550.757 55.7742C552.498 53.1821 553.575 50.2012 553.892 47.0946C554.208 43.988 553.756 40.8511 552.574 37.9607H578.215C588.842 37.9609 599.033 42.1834 606.548 49.6994C614.062 57.2153 618.284 67.4091 618.284 78.0383Z" fill="white"/>
<g clip-path="url(#clip0)">
<g clip-path="url(#clip1)">
<path opacity="0.1" d="M592.801 474.477C590.959 475.426 589.03 476.246 587.126 477.063C580.094 480.033 572.955 483.028 565.401 484.047C551.212 485.935 536.57 480.762 522.63 483.99C510.952 486.685 501.294 494.943 489.886 498.621C484.581 500.33 479.062 501 473.493 501H472.774C472.085 500.991 471.4 500.974 470.721 500.948C465.075 500.736 459.405 499.901 453.87 498.833C436.394 495.47 418.608 489.307 405.246 477.961C444.151 470.854 524.29 459.945 592.801 474.477Z" fill="#252223"/>
<path opacity="0.3" d="M606.361 389.4V372.847H596.533V389.4H584.894V363.795H576.359V344.656H569.376V325H554.892V344.656H547.909V363.795H539.632V340.777H534.977V329.138H532.132V340.777H515.579V414.229H502.906V406.47H495.147V414.229H482.473V389.4H459.713V372.847H449.885V389.4H449.368V421.212H439.022V402.59H426.607V421.212H416.262V363.795H408.244V344.656H378.759V363.795H371V464.921H416.262H449.368H482.473H515.579H539.632H584.894H618V389.4H606.361Z" fill="#00B0FF" fill-opacity="0.33"/>
<path opacity="0.4" d="M386.777 369.744H375.914V375.951H386.777V369.744Z" fill="white"/>
<path opacity="0.4" d="M400.226 375.951H411.089V369.744H400.226V375.951Z" fill="white"/>
<path opacity="0.4" d="M386.777 381.899H375.914V388.107H386.777V381.899Z" fill="white"/>
<path opacity="0.4" d="M400.226 388.107H411.089V381.899H400.226V388.107Z" fill="white"/>
<path opacity="0.4" d="M386.777 394.055H375.914V400.262H386.777V394.055Z" fill="white"/>
<path opacity="0.4" d="M400.226 400.262H411.089V394.055H400.226V400.262Z" fill="white"/>
<path opacity="0.4" d="M386.777 406.211H375.914V412.418H386.777V406.211Z" fill="white"/>
<path opacity="0.4" d="M400.226 412.418H411.089V406.211H400.226V412.418Z" fill="white"/>
<path opacity="0.4" d="M386.777 418.367H375.914V424.574H386.777V418.367Z" fill="white"/>
<path opacity="0.4" d="M400.226 424.574H411.089V418.367H400.226V424.574Z" fill="white"/>
<path opacity="0.4" d="M386.777 430.522H375.914V436.73H386.777V430.522Z" fill="white"/>
<path opacity="0.4" d="M400.226 436.73H411.089V430.522H400.226V436.73Z" fill="white"/>
<path opacity="0.4" d="M386.777 442.678H375.914V448.885H386.777V442.678Z" fill="white"/>
<path opacity="0.4" d="M400.226 448.885H411.089V442.678H400.226V448.885Z" fill="white"/>
<path opacity="0.4" d="M445.488 427.419H420.141V430.522H445.488V427.419Z" fill="white"/>
<path opacity="0.4" d="M445.488 432.074H420.141V435.178H445.488V432.074Z" fill="white"/>
<path opacity="0.4" d="M445.488 436.73H420.141V439.833H445.488V436.73Z" fill="white"/>
<path opacity="0.4" d="M511.699 428.971H486.353V432.074H511.699V428.971Z" fill="white"/>
<path opacity="0.4" d="M511.699 433.626H486.353V436.73H511.699V433.626Z" fill="white"/>
<path opacity="0.4" d="M511.699 438.281H486.353V441.385H511.699V438.281Z" fill="white"/>
<path opacity="0.4" d="M445.488 441.385H420.141V444.489H445.488V441.385Z" fill="white"/>
<path opacity="0.4" d="M445.488 446.04H420.141V449.144H445.488V446.04Z" fill="white"/>
<path opacity="0.4" d="M445.488 450.696H420.141V453.799H445.488V450.696Z" fill="white"/>
<path opacity="0.4" d="M461.782 395.348H454.799V404.4H461.782V395.348Z" fill="white"/>
<path opacity="0.4" d="M470.059 404.4H477.042V395.348H470.059V404.4Z" fill="white"/>
<path opacity="0.4" d="M461.782 409.832H454.799V418.884H461.782V409.832Z" fill="white"/>
<path opacity="0.4" d="M470.059 418.884H477.042V409.832H470.059V418.884Z" fill="white"/>
<path opacity="0.4" d="M461.782 424.315H454.799V433.367H461.782V424.315Z" fill="white"/>
<path opacity="0.4" d="M470.059 433.367H477.042V424.315H470.059V433.367Z" fill="white"/>
<path opacity="0.4" d="M461.782 438.799H454.799V447.851H461.782V438.799Z" fill="white"/>
<path opacity="0.4" d="M470.059 447.851H477.042V438.799H470.059V447.851Z" fill="white"/>
<path opacity="0.4" d="M524.89 346.725H515.579V358.622H524.89V346.725Z" fill="white"/>
<path opacity="0.4" d="M524.89 363.795H515.579V375.692H524.89V363.795Z" fill="white"/>
<path opacity="0.4" d="M524.89 380.865H515.579V392.762H524.89V380.865Z" fill="white"/>
<path opacity="0.4" d="M524.89 397.935H515.579V409.832H524.89V397.935Z" fill="white"/>
<path opacity="0.4" d="M524.89 415.004H515.579V426.902H524.89V415.004Z" fill="white"/>
<path opacity="0.4" d="M524.89 432.074H515.579V443.971H524.89V432.074Z" fill="white"/>
<path opacity="0.4" d="M579.592 371.037H544.935V381.123H579.592V371.037Z" fill="white"/>
<path opacity="0.4" d="M579.721 392.762H545.064V402.849H579.721V392.762Z" fill="white"/>
<path opacity="0.4" d="M579.851 414.487H545.193V424.574H579.851V414.487Z" fill="white"/>
<path opacity="0.4" d="M579.98 436.212H545.323V446.299H579.98V436.212Z" fill="white"/>
<path opacity="0.4" d="M383.415 350.087H378.759V359.916H383.415V350.087Z" fill="white"/>
<path opacity="0.4" d="M618 395.348H606.361V410.349H618V395.348Z" fill="white"/>
<path opacity="0.4" d="M618 417.073H606.361V432.074H618V417.073Z" fill="white"/>
<path opacity="0.4" d="M618 438.799H606.361V453.799H618V438.799Z" fill="white"/>
<path d="M423.847 433.028C423.847 433.028 403.484 445.313 441.02 464.227C441.02 464.227 449.297 448.874 440.146 436.356C438.371 433.916 435.763 432.212 432.816 431.566C429.869 430.92 426.787 431.378 424.154 432.852L423.847 433.028Z" fill="#00B0FF" fill-opacity="0.33"/>
<path d="M424.082 432.769C424.082 432.769 441.506 446.102 441.02 464.227" stroke="#535461" stroke-miterlimit="10"/>
<path d="M441.967 464.925C441.967 464.925 435.586 443.262 443.164 427.317C446.346 420.626 447.401 413.113 445.932 405.85C445.229 402.402 444.212 399.026 442.893 395.764" stroke="#535461" stroke-width="2" stroke-miterlimit="10"/>
<path d="M447.597 386.7C447.597 389.356 442.789 397.046 442.789 397.046C442.789 397.046 437.981 389.346 437.981 386.7C437.966 386.06 438.08 385.423 438.315 384.826C438.549 384.23 438.901 383.687 439.349 383.229C439.797 382.77 440.332 382.406 440.922 382.158C441.513 381.909 442.147 381.781 442.788 381.781C443.429 381.781 444.063 381.909 444.654 382.158C445.244 382.406 445.779 382.77 446.227 383.229C446.675 383.687 447.027 384.23 447.261 384.826C447.496 385.423 447.61 386.06 447.595 386.7H447.597Z" fill="#00B0FF" fill-opacity="0.33"/>
<path d="M455.553 401.406C454.11 403.636 445.89 407.484 445.89 407.484C445.89 407.484 446.04 398.409 447.484 396.179C448.191 395.144 449.276 394.426 450.506 394.179C451.735 393.932 453.013 394.175 454.066 394.857C455.119 395.539 455.863 396.605 456.141 397.828C456.419 399.051 456.208 400.334 455.553 401.404V401.406Z" fill="#00B0FF" fill-opacity="0.33"/>
<path d="M455.204 426.538C452.832 427.733 443.795 426.907 443.795 426.907C443.795 426.907 448.505 419.148 450.877 417.954C452.012 417.409 453.315 417.332 454.506 417.737C455.698 418.143 456.682 419 457.249 420.124C457.816 421.247 457.92 422.548 457.538 423.748C457.156 424.947 456.319 425.949 455.207 426.538H455.204Z" fill="#00B0FF" fill-opacity="0.33"/>
<path d="M450.66 445.493C448.526 447.071 439.476 447.784 439.476 447.784C439.476 447.784 442.807 439.343 444.941 437.762C445.448 437.381 446.026 437.104 446.641 436.946C447.256 436.789 447.896 436.755 448.524 436.847C449.152 436.938 449.755 437.153 450.3 437.479C450.845 437.805 451.319 438.235 451.697 438.745C452.074 439.256 452.347 439.836 452.499 440.452C452.651 441.068 452.68 441.708 452.584 442.335C452.487 442.962 452.268 443.564 451.937 444.106C451.607 444.648 451.173 445.12 450.66 445.493Z" fill="#00B0FF" fill-opacity="0.33"/>
<path d="M435.796 407.999C437.699 409.848 446.573 411.764 446.573 411.764C446.573 411.764 444.401 402.953 442.497 401.101C442.048 400.643 441.512 400.28 440.921 400.033C440.329 399.786 439.694 399.659 439.053 399.661C438.412 399.662 437.778 399.792 437.188 400.042C436.598 400.293 436.063 400.659 435.617 401.118C435.17 401.578 434.82 402.123 434.587 402.72C434.353 403.317 434.242 403.955 434.259 404.596C434.276 405.236 434.421 405.867 434.685 406.451C434.949 407.035 435.328 407.561 435.798 407.996L435.796 407.999Z" fill="#00B0FF" fill-opacity="0.33"/>
<path d="M430.763 430.233C433.134 431.428 442.171 430.603 442.171 430.603C442.171 430.603 437.461 422.844 435.09 421.649C433.955 421.105 432.652 421.028 431.46 421.433C430.269 421.839 429.284 422.696 428.717 423.819C428.151 424.943 428.047 426.244 428.429 427.444C428.811 428.643 429.648 429.644 430.76 430.233H430.763Z" fill="#00B0FF" fill-opacity="0.33"/>
<path d="M428.836 452.517C430.97 454.095 440.019 454.809 440.019 454.809C440.019 454.809 436.688 446.364 434.552 444.787C433.526 444.041 432.247 443.73 430.993 443.923C429.739 444.115 428.612 444.796 427.858 445.816C427.103 446.835 426.783 448.112 426.965 449.367C427.148 450.623 427.819 451.755 428.833 452.517H428.836Z" fill="#00B0FF" fill-opacity="0.33"/>
<path opacity="0.25" d="M447.597 386.7C447.597 389.356 442.789 397.046 442.789 397.046C442.789 397.046 437.981 389.346 437.981 386.7C437.966 386.06 438.08 385.423 438.315 384.826C438.549 384.23 438.901 383.687 439.349 383.229C439.797 382.77 440.332 382.406 440.922 382.158C441.513 381.909 442.147 381.781 442.788 381.781C443.429 381.781 444.063 381.909 444.654 382.158C445.244 382.406 445.779 382.77 446.227 383.229C446.675 383.687 447.027 384.23 447.261 384.826C447.496 385.423 447.61 386.06 447.595 386.7H447.597Z" fill="black"/>
<path opacity="0.25" d="M455.553 401.406C454.11 403.636 445.89 407.484 445.89 407.484C445.89 407.484 446.04 398.409 447.484 396.179C448.191 395.144 449.276 394.426 450.506 394.179C451.735 393.932 453.013 394.175 454.066 394.857C455.119 395.539 455.863 396.605 456.141 397.828C456.419 399.051 456.208 400.334 455.553 401.404V401.406Z" fill="black"/>
<path opacity="0.25" d="M455.204 426.538C452.832 427.733 443.795 426.907 443.795 426.907C443.795 426.907 448.505 419.148 450.877 417.954C452.012 417.409 453.315 417.332 454.506 417.737C455.698 418.143 456.682 419 457.249 420.124C457.816 421.247 457.92 422.548 457.538 423.748C457.156 424.947 456.319 425.949 455.207 426.538H455.204Z" fill="black"/>
<path opacity="0.25" d="M450.66 445.493C448.526 447.071 439.476 447.784 439.476 447.784C439.476 447.784 442.807 439.343 444.941 437.762C445.448 437.381 446.026 437.104 446.641 436.946C447.256 436.789 447.896 436.755 448.524 436.847C449.152 436.938 449.755 437.153 450.3 437.479C450.845 437.805 451.319 438.235 451.697 438.745C452.074 439.256 452.347 439.836 452.499 440.452C452.651 441.068 452.68 441.708 452.584 442.335C452.487 442.962 452.268 443.564 451.937 444.106C451.607 444.648 451.173 445.12 450.66 445.493Z" fill="black"/>
<path opacity="0.25" d="M435.796 407.999C437.699 409.848 446.573 411.764 446.573 411.764C446.573 411.764 444.401 402.953 442.497 401.101C442.048 400.643 441.512 400.28 440.921 400.033C440.329 399.786 439.694 399.659 439.053 399.661C438.412 399.662 437.778 399.792 437.188 400.042C436.598 400.293 436.063 400.659 435.617 401.118C435.17 401.578 434.82 402.123 434.587 402.72C434.353 403.317 434.242 403.955 434.259 404.596C434.276 405.236 434.421 405.867 434.685 406.451C434.949 407.035 435.328 407.561 435.798 407.996L435.796 407.999Z" fill="black"/>
<path opacity="0.25" d="M430.763 430.233C433.134 431.428 442.171 430.603 442.171 430.603C442.171 430.603 437.461 422.844 435.09 421.649C433.955 421.105 432.652 421.028 431.46 421.433C430.269 421.839 429.284 422.696 428.717 423.819C428.151 424.943 428.047 426.244 428.429 427.444C428.811 428.643 429.648 429.644 430.76 430.233H430.763Z" fill="black"/>
<path opacity="0.25" d="M428.836 452.517C430.97 454.095 440.019 454.809 440.019 454.809C440.019 454.809 436.688 446.364 434.552 444.787C433.526 444.041 432.247 443.73 430.993 443.923C429.739 444.115 428.612 444.796 427.858 445.816C427.103 446.835 426.783 448.112 426.965 449.367C427.148 450.623 427.819 451.755 428.833 452.517H428.836Z" fill="black"/>
<path d="M606.132 465.331C606.132 465.331 599.751 443.668 607.329 427.723C610.51 421.032 611.566 413.519 610.097 406.256C609.394 402.808 608.377 399.432 607.058 396.169" stroke="#535461" stroke-width="2" stroke-miterlimit="10"/>
<path d="M611.773 386.106C611.773 388.762 606.964 396.451 606.964 396.451C606.964 396.451 602.156 388.752 602.156 386.106C602.141 385.465 602.255 384.828 602.49 384.232C602.725 383.636 603.076 383.093 603.524 382.634C603.972 382.176 604.507 381.812 605.097 381.563C605.688 381.315 606.322 381.187 606.963 381.187C607.604 381.187 608.238 381.315 608.829 381.563C609.419 381.812 609.954 382.176 610.402 382.634C610.85 383.093 611.202 383.636 611.437 384.232C611.671 384.828 611.785 385.465 611.77 386.106H611.773Z" fill="#00B0FF" fill-opacity="0.33"/>
<path d="M619.718 400.812C618.275 403.041 610.055 406.89 610.055 406.89C610.055 406.89 610.205 397.814 611.648 395.585C611.983 395.038 612.425 394.563 612.946 394.189C613.467 393.815 614.058 393.549 614.684 393.407C615.309 393.265 615.957 393.25 616.589 393.362C617.22 393.474 617.823 393.711 618.362 394.06C618.9 394.409 619.364 394.861 619.724 395.392C620.085 395.922 620.336 396.52 620.463 397.149C620.589 397.778 620.588 398.426 620.46 399.054C620.332 399.683 620.08 400.28 619.718 400.809V400.812Z" fill="#00B0FF" fill-opacity="0.33"/>
<path d="M619.371 425.943C617 427.138 607.963 426.313 607.963 426.313C607.963 426.313 612.673 418.554 615.044 417.359C616.179 416.815 617.482 416.737 618.673 417.143C619.865 417.549 620.85 418.406 621.417 419.529C621.983 420.653 622.087 421.954 621.705 423.153C621.323 424.353 620.486 425.354 619.374 425.943H619.371Z" fill="#00B0FF" fill-opacity="0.33"/>
<path d="M614.827 444.899C612.693 446.476 603.643 447.19 603.643 447.19C603.643 447.19 606.975 438.748 609.109 437.168C610.134 436.422 611.414 436.111 612.667 436.304C613.921 436.497 615.048 437.177 615.802 438.197C616.557 439.217 616.878 440.493 616.695 441.749C616.512 443.004 615.841 444.136 614.827 444.899Z" fill="#00B0FF" fill-opacity="0.33"/>
<path d="M599.96 407.397C601.864 409.246 610.738 411.162 610.738 411.162C610.738 411.162 608.565 402.351 606.662 400.499C605.747 399.61 604.517 399.122 603.242 399.14C601.966 399.158 600.751 399.683 599.862 400.597C598.974 401.512 598.485 402.742 598.503 404.017C598.521 405.293 599.046 406.508 599.96 407.397Z" fill="#00B0FF" fill-opacity="0.33"/>
<path d="M594.938 429.639C597.309 430.834 606.346 430.009 606.346 430.009C606.346 430.009 601.636 422.25 599.265 421.055C598.131 420.519 596.832 420.447 595.646 420.855C594.46 421.263 593.481 422.118 592.916 423.238C592.352 424.358 592.247 425.654 592.625 426.85C593.002 428.046 593.832 429.047 594.938 429.639Z" fill="#00B0FF" fill-opacity="0.33"/>
<path d="M593.001 451.923C595.134 453.501 604.184 454.215 604.184 454.215C604.184 454.215 600.853 445.773 598.719 444.193C597.693 443.446 596.414 443.136 595.16 443.328C593.906 443.521 592.78 444.202 592.025 445.221C591.271 446.241 590.95 447.518 591.133 448.773C591.315 450.028 591.987 451.161 593.001 451.923Z" fill="#00B0FF" fill-opacity="0.33"/>
<path d="M581.35 465.223C581.35 465.223 577.921 453.584 581.994 445.013C583.725 441.43 584.247 437.383 583.481 433.478C583.104 431.628 582.558 429.816 581.849 428.065" stroke="#535461" stroke-width="2" stroke-miterlimit="10"/>
<path d="M584.382 422.647C584.382 424.074 581.795 428.21 581.795 428.21C581.795 428.21 579.209 424.072 579.209 422.647C579.209 421.961 579.481 421.303 579.966 420.818C580.451 420.333 581.109 420.06 581.795 420.06C582.481 420.06 583.139 420.333 583.624 420.818C584.109 421.303 584.382 421.961 584.382 422.647Z" fill="#00B0FF" fill-opacity="0.33"/>
<path d="M588.652 430.55C587.876 431.748 583.458 433.817 583.458 433.817C583.458 433.817 583.538 428.939 584.314 427.742C584.491 427.44 584.727 427.177 585.007 426.969C585.288 426.761 585.608 426.612 585.949 426.531C586.289 426.45 586.642 426.439 586.986 426.498C587.33 426.558 587.659 426.686 587.953 426.876C588.246 427.066 588.498 427.314 588.693 427.604C588.888 427.894 589.022 428.221 589.088 428.564C589.153 428.907 589.148 429.26 589.073 429.602C588.998 429.943 588.855 430.266 588.652 430.55Z" fill="#00B0FF" fill-opacity="0.33"/>
<path d="M588.465 444.054C587.19 444.695 582.333 444.253 582.333 444.253C582.333 444.253 584.865 440.084 586.138 439.442C586.745 439.168 587.435 439.138 588.064 439.361C588.693 439.583 589.211 440.039 589.512 440.634C589.812 441.23 589.871 441.918 589.676 442.555C589.481 443.193 589.047 443.731 588.465 444.056V444.054Z" fill="#00B0FF" fill-opacity="0.33"/>
<path d="M586.021 454.241C584.873 455.09 580.01 455.472 580.01 455.472C580.01 455.472 581.8 450.936 582.949 450.088C583.501 449.719 584.174 449.577 584.829 449.691C585.483 449.805 586.068 450.167 586.463 450.701C586.858 451.235 587.033 451.9 586.95 452.559C586.868 453.219 586.535 453.821 586.021 454.241Z" fill="#00B0FF" fill-opacity="0.33"/>
<path d="M578.034 434.094C579.069 435.087 583.825 436.119 583.825 436.119C583.825 436.119 582.659 431.383 581.635 430.39C581.395 430.135 581.107 429.931 580.787 429.79C580.466 429.649 580.121 429.575 579.771 429.572C579.421 429.569 579.074 429.637 578.751 429.772C578.428 429.906 578.136 430.105 577.892 430.356C577.648 430.607 577.458 430.905 577.333 431.232C577.207 431.558 577.15 431.907 577.163 432.257C577.176 432.606 577.26 432.95 577.41 433.266C577.56 433.582 577.772 433.865 578.034 434.096V434.094Z" fill="#00B0FF" fill-opacity="0.33"/>
<path d="M575.329 446.043C576.604 446.684 581.461 446.242 581.461 446.242C581.461 446.242 578.929 442.073 577.657 441.431C577.049 441.157 576.359 441.127 575.73 441.349C575.102 441.572 574.583 442.028 574.283 442.623C573.982 443.218 573.924 443.907 574.119 444.544C574.314 445.182 574.747 445.72 575.329 446.045V446.043Z" fill="#00B0FF" fill-opacity="0.33"/>
<path d="M574.295 458.02C575.443 458.868 580.305 459.251 580.305 459.251C580.305 459.251 578.505 454.712 577.367 453.864C576.815 453.488 576.138 453.341 575.479 453.453C574.82 453.565 574.23 453.927 573.833 454.465C573.436 455.002 573.262 455.673 573.348 456.335C573.434 456.998 573.773 457.602 574.295 458.02Z" fill="#00B0FF" fill-opacity="0.33"/>
<path opacity="0.1" d="M492.208 368.492H490.429C490.597 368.5 490.765 368.473 490.923 368.414C491.081 368.355 491.225 368.264 491.347 368.148C491.468 368.032 491.565 367.892 491.632 367.737C491.698 367.582 491.732 367.415 491.732 367.247C491.732 367.078 491.698 366.911 491.632 366.756C491.565 366.602 491.468 366.462 491.347 366.345C491.225 366.229 491.081 366.138 490.923 366.079C490.765 366.02 490.597 365.994 490.429 366.001H476.015C475.694 366.016 475.392 366.153 475.17 366.385C474.948 366.617 474.825 366.926 474.825 367.247C474.825 367.567 474.948 367.876 475.17 368.108C475.392 368.34 475.694 368.477 476.015 368.492H477.794C477.626 368.484 477.458 368.511 477.3 368.57C477.142 368.629 476.998 368.72 476.876 368.836C476.754 368.952 476.657 369.092 476.591 369.247C476.525 369.402 476.491 369.569 476.491 369.737C476.491 369.906 476.525 370.072 476.591 370.227C476.657 370.382 476.754 370.522 476.876 370.639C476.998 370.755 477.142 370.845 477.3 370.905C477.458 370.964 477.626 370.99 477.794 370.983H475.303C475.135 370.975 474.967 371.001 474.809 371.061C474.651 371.12 474.507 371.21 474.385 371.327C474.264 371.443 474.167 371.583 474.1 371.738C474.034 371.893 474 372.059 474 372.228C474 372.396 474.034 372.563 474.1 372.718C474.167 372.873 474.264 373.013 474.385 373.129C474.507 373.246 474.651 373.336 474.809 373.395C474.967 373.454 475.135 373.481 475.303 373.473H489.717C489.886 373.481 490.054 373.454 490.212 373.395C490.369 373.336 490.513 373.246 490.635 373.129C490.757 373.013 490.854 372.873 490.92 372.718C490.987 372.563 491.021 372.396 491.021 372.228C491.021 372.059 490.987 371.893 490.92 371.738C490.854 371.583 490.757 371.443 490.635 371.327C490.513 371.21 490.369 371.12 490.212 371.061C490.054 371.001 489.886 370.975 489.717 370.983H492.208C492.376 370.99 492.544 370.964 492.702 370.905C492.86 370.845 493.004 370.755 493.126 370.639C493.248 370.522 493.345 370.382 493.411 370.227C493.477 370.072 493.511 369.906 493.511 369.737C493.511 369.569 493.477 369.402 493.411 369.247C493.345 369.092 493.248 368.952 493.126 368.836C493.004 368.72 492.86 368.629 492.702 368.57C492.544 368.511 492.376 368.484 492.208 368.492Z" fill="#252223"/>
<path d="M473.827 417.123C473.628 417.267 473.519 417.348 473.519 417.348C473.632 417.288 473.736 417.212 473.827 417.123Z" fill="url(#paint0_linear)"/>
<path d="M474.068 417.366C473.868 417.511 473.76 417.591 473.76 417.591C473.873 417.531 473.976 417.455 474.068 417.366Z" fill="url(#paint1_linear)"/>
<path d="M474.068 417.123C473.868 417.267 473.76 417.348 473.76 417.348C473.873 417.288 473.976 417.212 474.068 417.123Z" fill="url(#paint2_linear)"/>
<path d="M459.78 405.202C459.285 404.175 458.052 403.744 457.025 404.239C455.998 404.734 455.567 405.968 456.062 406.995L458.522 412.097C459.017 413.124 460.251 413.555 461.278 413.06C462.304 412.565 462.735 411.331 462.24 410.304L459.78 405.202Z" fill="#CBDAE3"/>
<path d="M458.734 404.2L455.925 405.555L459.152 412.248L461.961 410.894L458.734 404.2Z" fill="#F2F2F2"/>
<path d="M461.174 412.714C461.351 412.629 461.402 412.371 461.289 412.136C461.176 411.902 460.942 411.781 460.766 411.866C460.589 411.951 460.538 412.21 460.651 412.444C460.764 412.678 460.998 412.799 461.174 412.714Z" fill="#F2F2F2"/>
<path opacity="0.4" d="M449.465 360.336C452.596 359.237 454.242 355.806 453.142 352.673C452.042 349.54 448.611 347.891 445.481 348.991C442.35 350.091 440.703 353.522 441.804 356.655C442.904 359.788 446.334 361.436 449.465 360.336Z" fill="#00B0FF"/>
<path opacity="0.4" d="M437.772 368.892C439.968 368.121 441.123 365.714 440.351 363.516C439.579 361.319 437.173 360.162 434.977 360.934C432.781 361.705 431.626 364.112 432.398 366.31C433.169 368.507 435.576 369.664 437.772 368.892Z" fill="#00B0FF"/>
<path opacity="0.1" d="M609.208 334.492H607.429C607.597 334.5 607.765 334.473 607.923 334.414C608.081 334.355 608.225 334.264 608.347 334.148C608.468 334.032 608.565 333.892 608.632 333.737C608.698 333.582 608.732 333.415 608.732 333.247C608.732 333.078 608.698 332.911 608.632 332.756C608.565 332.602 608.468 332.462 608.347 332.345C608.225 332.229 608.081 332.138 607.923 332.079C607.765 332.02 607.597 331.994 607.429 332.001H593.015C592.694 332.016 592.392 332.153 592.17 332.385C591.948 332.617 591.825 332.926 591.825 333.247C591.825 333.567 591.948 333.876 592.17 334.108C592.392 334.34 592.694 334.477 593.015 334.492H594.794C594.626 334.484 594.458 334.511 594.3 334.57C594.142 334.629 593.998 334.72 593.876 334.836C593.754 334.952 593.657 335.092 593.591 335.247C593.525 335.402 593.491 335.569 593.491 335.737C593.491 335.906 593.525 336.072 593.591 336.227C593.657 336.382 593.754 336.522 593.876 336.639C593.998 336.755 594.142 336.845 594.3 336.905C594.458 336.964 594.626 336.99 594.794 336.983H592.303C592.135 336.975 591.967 337.001 591.809 337.061C591.651 337.12 591.507 337.21 591.385 337.327C591.264 337.443 591.167 337.583 591.1 337.738C591.034 337.893 591 338.059 591 338.228C591 338.396 591.034 338.563 591.1 338.718C591.167 338.873 591.264 339.013 591.385 339.129C591.507 339.246 591.651 339.336 591.809 339.395C591.967 339.454 592.135 339.481 592.303 339.473H606.717C607.038 339.459 607.34 339.321 607.562 339.089C607.784 338.857 607.907 338.549 607.907 338.228C607.907 337.907 607.784 337.599 607.562 337.367C607.34 337.135 607.038 336.997 606.717 336.983H609.208C609.376 336.99 609.544 336.964 609.702 336.905C609.86 336.845 610.004 336.755 610.126 336.639C610.248 336.522 610.345 336.382 610.411 336.227C610.477 336.072 610.511 335.906 610.511 335.737C610.511 335.569 610.477 335.402 610.411 335.247C610.345 335.092 610.248 334.952 610.126 334.836C610.004 334.72 609.86 334.629 609.702 334.57C609.544 334.511 609.376 334.484 609.208 334.492Z" fill="#252223"/>
</g>
<path d="M494.654 406C497.967 406 500.654 403.314 500.654 400C500.654 396.686 497.967 394 494.654 394C491.34 394 488.654 396.686 488.654 400C488.654 403.314 491.34 406 494.654 406Z" fill="#F1F1F1"/>
<path d="M348.654 362C351.967 362 354.654 359.314 354.654 356C354.654 352.686 351.967 350 348.654 350C345.34 350 342.654 352.686 342.654 356C342.654 359.314 345.34 362 348.654 362Z" fill="#CBCBCB"/>
<path d="M505.272 464.795C517.93 464.795 528.192 454.515 528.192 441.833C528.192 429.151 517.93 418.871 505.272 418.871C492.614 418.871 482.353 429.151 482.353 441.833C482.353 454.515 492.614 464.795 505.272 464.795Z" fill="#2F2E41"/>
<path d="M501.791 459.854H494.828V472.352H501.791V459.854Z" fill="#2F2E41"/>
<path d="M515.717 459.854H508.754V472.352H515.717V459.854Z" fill="#2F2E41"/>
<path d="M500.63 474.678C503.835 474.678 506.433 473.702 506.433 472.498C506.433 471.294 503.835 470.318 500.63 470.318C497.426 470.318 494.828 471.294 494.828 472.498C494.828 473.702 497.426 474.678 500.63 474.678Z" fill="#2F2E41"/>
<path d="M514.556 474.387C517.761 474.387 520.359 473.411 520.359 472.207C520.359 471.003 517.761 470.027 514.556 470.027C511.352 470.027 508.754 471.003 508.754 472.207C508.754 473.411 511.352 474.387 514.556 474.387Z" fill="#2F2E41"/>
<path d="M529.97 431.799C534.934 426.822 537.694 421.522 536.134 419.961C534.575 418.4 529.287 421.169 524.323 426.145C519.36 431.122 516.6 436.422 518.159 437.983C519.719 439.544 525.007 436.776 529.97 431.799Z" fill="#2F2E41"/>
<path d="M486.798 439.583C488.358 438.022 485.598 432.722 480.635 427.745C475.671 422.768 470.383 419.999 468.824 421.561C467.264 423.122 470.024 428.422 474.987 433.398C479.951 438.375 485.239 441.144 486.798 439.583Z" fill="#2F2E41"/>
<path d="M504.308 446.427C508.634 446.427 512.141 442.913 512.141 438.579C512.141 434.245 508.634 430.731 504.308 430.731C499.982 430.731 496.475 434.245 496.475 438.579C496.475 442.913 499.982 446.427 504.308 446.427Z" fill="white"/>
<path d="M504.308 441.195C505.75 441.195 506.919 440.024 506.919 438.579C506.919 437.134 505.75 435.963 504.308 435.963C502.866 435.963 501.697 437.134 501.697 438.579C501.697 440.024 502.866 441.195 504.308 441.195Z" fill="#3F3D56"/>
<path d="M510.526 453.093C510.768 454.425 510.472 455.798 509.703 456.911C508.935 458.024 507.756 458.786 506.427 459.028C505.098 459.271 503.727 458.974 502.616 458.204C501.505 457.434 500.745 456.253 500.503 454.921L500.501 454.911C500 452.138 502.14 451.156 504.909 450.654C507.677 450.152 510.025 450.32 510.526 453.093Z" fill="white"/>
<path d="M504.682 426.772C500.61 426.767 496.561 426.148 492.674 424.934C492.403 424.846 492.168 424.676 492 424.446C491.833 424.216 491.742 423.94 491.741 423.655V414.309C491.741 413.955 491.882 413.617 492.131 413.367C492.381 413.117 492.719 412.976 493.071 412.976H516.487C516.84 412.976 517.178 413.117 517.428 413.367C517.677 413.617 517.817 413.955 517.818 414.309V423.65C517.818 423.937 517.726 424.216 517.555 424.446C517.385 424.677 517.145 424.846 516.871 424.929C512.92 426.139 508.813 426.759 504.682 426.772Z" fill="#00B0FF"/>
<path opacity="0.2" d="M517.552 414.309V415.871L504.88 420.323C504.644 420.405 504.386 420.401 504.151 420.312L492.007 415.743V414.309C492.008 414.026 492.12 413.755 492.32 413.556C492.519 413.356 492.789 413.243 493.071 413.242H516.487C516.769 413.243 517.04 413.356 517.239 413.556C517.438 413.755 517.551 414.026 517.552 414.309Z" fill="black"/>
<path d="M504.526 418.516C504.366 418.516 504.208 418.488 504.058 418.432L485.91 411.605C485.654 411.508 485.433 411.334 485.279 411.108C485.125 410.881 485.044 410.612 485.048 410.337C485.052 410.062 485.141 409.796 485.302 409.574C485.463 409.351 485.688 409.184 485.948 409.095L503.023 403.243C503.299 403.149 503.597 403.148 503.874 403.239L522.931 409.604C523.195 409.692 523.424 409.86 523.587 410.085C523.75 410.31 523.839 410.58 523.841 410.858C523.843 411.136 523.758 411.408 523.599 411.635C523.439 411.863 523.213 412.034 522.951 412.126L504.966 418.442C504.824 418.491 504.676 418.516 504.526 418.516Z" fill="#00B0FF"/>
<path d="M488.016 418.041H487.484V410.31H503.715V410.843H488.016V418.041Z" fill="#3F3D56"/>
<path d="M531.001 458.894C531.042 461.824 533.494 464.141 536.401 464.141H536.805C537.163 464.139 537.507 464.279 537.763 464.531C537.957 464.714 538.093 464.953 538.152 465.215C538.179 465.321 538.192 465.429 538.192 465.539V470.711C538.191 471.705 538.473 472.679 539.005 473.516C539.78 474.702 540.199 476.088 540.215 477.507C540.215 477.839 540.281 478.167 540.408 478.472C540.535 478.777 540.722 479.054 540.956 479.286C541.191 479.518 541.469 479.701 541.774 479.823C542.079 479.946 542.406 480.006 542.734 480C544.094 479.975 545.159 478.797 545.159 477.426V476.132L545.834 476.212V477.507C545.834 477.839 545.899 478.167 546.027 478.472C546.154 478.777 546.34 479.054 546.575 479.286C546.809 479.518 547.087 479.701 547.393 479.823C547.698 479.946 548.025 480.006 548.353 480C549.713 479.975 550.778 478.797 550.778 477.426V476.771C551.452 477.054 555.273 477.054 556.334 476.78L556.622 476.758V477.508C556.622 477.839 556.688 478.167 556.815 478.472C556.942 478.777 557.128 479.054 557.363 479.286C557.598 479.518 557.876 479.701 558.181 479.823C558.486 479.946 558.813 480.006 559.141 480C560.501 479.975 561.566 478.797 561.566 477.426V476.35L561.791 476.329V477.508C561.791 477.716 561.817 477.924 561.867 478.126C562.006 478.67 562.323 479.15 562.766 479.49C563.209 479.83 563.753 480.01 564.31 480C564.908 479.977 565.478 479.741 565.918 479.333C566.358 478.925 566.64 478.373 566.713 477.775C566.727 477.659 566.735 477.543 566.735 477.426V472.014C566.738 470.155 566.12 468.349 564.982 466.887C564.785 466.628 564.675 466.313 564.667 465.986C564.659 465.66 564.755 465.34 564.94 465.072C566.198 463.214 568.059 460.079 567.999 457.856C568.011 457.253 567.801 456.667 567.41 456.211C567.385 456.184 567.36 456.157 567.336 456.132C565.524 454.22 562.335 455.724 562.611 458.352C562.705 459.233 562.64 460.123 562.42 460.98C562.296 461.465 562.126 461.937 561.915 462.39C561.703 462.844 561.355 463.22 560.92 463.464C560.485 463.708 559.984 463.808 559.489 463.749C559.153 463.708 558.815 463.687 558.476 463.688H548.081C547.471 463.688 546.877 463.495 546.381 463.137C545.885 462.779 545.513 462.274 545.317 461.692C545.211 461.387 545.158 461.066 545.159 460.743V452.587C545.159 452.374 545.117 452.164 545.035 451.968C544.953 451.772 544.833 451.595 544.681 451.447C544.53 451.299 544.35 451.184 544.154 451.107C543.957 451.03 543.747 450.994 543.537 451.001C543.331 451.008 543.129 451.057 542.942 451.144C542.756 451.232 542.589 451.356 542.451 451.511C542.17 451.823 542.014 452.231 542.013 452.653C542.013 452.763 541.991 452.873 541.949 452.974C541.907 453.076 541.846 453.169 541.769 453.247C541.691 453.325 541.599 453.387 541.498 453.429C541.397 453.471 541.288 453.493 541.179 453.493H536.282C535.582 453.493 534.888 453.633 534.242 453.905C533.597 454.177 533.011 454.576 532.519 455.079C532.028 455.582 531.641 456.178 531.38 456.833C531.119 457.488 530.99 458.188 531.001 458.894Z" fill="#F3AD55"/>
</g>
<path opacity="0.1" d="M413.208 318.492H411.429C411.597 318.5 411.765 318.473 411.923 318.414C412.081 318.355 412.225 318.264 412.347 318.148C412.468 318.032 412.565 317.892 412.632 317.737C412.698 317.582 412.732 317.415 412.732 317.247C412.732 317.078 412.698 316.911 412.632 316.756C412.565 316.602 412.468 316.462 412.347 316.345C412.225 316.229 412.081 316.138 411.923 316.079C411.765 316.02 411.597 315.994 411.429 316.001H397.015C396.694 316.016 396.392 316.153 396.17 316.385C395.948 316.617 395.825 316.926 395.825 317.247C395.825 317.567 395.948 317.876 396.17 318.108C396.392 318.34 396.694 318.477 397.015 318.492H398.794C398.626 318.484 398.458 318.511 398.3 318.57C398.142 318.629 397.998 318.72 397.876 318.836C397.754 318.952 397.657 319.092 397.591 319.247C397.525 319.402 397.491 319.569 397.491 319.737C397.491 319.906 397.525 320.072 397.591 320.227C397.657 320.382 397.754 320.522 397.876 320.639C397.998 320.755 398.142 320.845 398.3 320.905C398.458 320.964 398.626 320.99 398.794 320.983H396.303C396.135 320.975 395.967 321.001 395.809 321.061C395.651 321.12 395.507 321.21 395.385 321.327C395.264 321.443 395.167 321.583 395.1 321.738C395.034 321.893 395 322.059 395 322.228C395 322.396 395.034 322.563 395.1 322.718C395.167 322.873 395.264 323.013 395.385 323.129C395.507 323.246 395.651 323.336 395.809 323.395C395.967 323.454 396.135 323.481 396.303 323.473H410.717C410.886 323.481 411.054 323.454 411.212 323.395C411.369 323.336 411.513 323.246 411.635 323.129C411.757 323.013 411.854 322.873 411.92 322.718C411.987 322.563 412.021 322.396 412.021 322.228C412.021 322.059 411.987 321.893 411.92 321.738C411.854 321.583 411.757 321.443 411.635 321.327C411.513 321.21 411.369 321.12 411.212 321.061C411.054 321.001 410.886 320.975 410.717 320.983H413.208C413.376 320.99 413.544 320.964 413.702 320.905C413.86 320.845 414.004 320.755 414.126 320.639C414.248 320.522 414.345 320.382 414.411 320.227C414.477 320.072 414.511 319.906 414.511 319.737C414.511 319.569 414.477 319.402 414.411 319.247C414.345 319.092 414.248 318.952 414.126 318.836C414.004 318.72 413.86 318.629 413.702 318.57C413.544 318.511 413.376 318.484 413.208 318.492Z" fill="#252223"/>
<path opacity="0.4" d="M584 314C588.418 314 592 310.418 592 306C592 301.582 588.418 298 584 298C579.582 298 576 301.582 576 306C576 310.418 579.582 314 584 314Z" fill="#00B0FF"/>
<path d="M593.5 313C600.956 313 607 306.956 607 299.5C607 292.044 600.956 286 593.5 286C586.044 286 580 292.044 580 299.5C580 306.956 586.044 313 593.5 313Z" fill="#FF99AE"/>
<path opacity="0.4" d="M352.654 386.79C356.881 386.79 360.308 383.361 360.308 379.132C360.308 374.902 356.881 371.473 352.654 371.473C348.427 371.473 345 374.902 345 379.132C345 383.361 348.427 386.79 352.654 386.79Z" fill="#00B0FF"/>
<path d="M341 507H618V586C618 608.091 600.091 626 578 626H381C358.909 626 341 608.091 341 586V507Z" fill="#E6F7FF"/>
<path d="M341 507C341 506.448 341.448 506 342 506H617C617.552 506 618 506.448 618 507C618 507.552 617.552 508 617 508H342C341.448 508 341 507.552 341 507Z" fill="#C4C4C4"/>
<g filter="url(#filter0_d)">
<path d="M479.5 597C496.897 597 511 582.897 511 565.5C511 548.103 496.897 534 479.5 534C462.103 534 448 548.103 448 565.5C448 582.897 462.103 597 479.5 597Z" fill="white"/>
</g>
<path d="M574 260H385C381.686 260 379 262.686 379 266V277C379 280.314 381.686 283 385 283H574C577.314 283 580 280.314 580 277V266C580 262.686 577.314 260 574 260Z" fill="#C4C4C4"/>
<path d="M480 284C516.451 284 546 254.451 546 218C546 181.549 516.451 152 480 152C443.549 152 414 181.549 414 218C414 254.451 443.549 284 480 284Z" fill="#FFB53F"/>
<path opacity="0.1" d="M480 274.76C511.348 274.76 536.76 249.348 536.76 218C536.76 186.652 511.348 161.24 480 161.24C448.652 161.24 423.24 186.652 423.24 218C423.24 249.348 448.652 274.76 480 274.76Z" fill="#312C23"/>
<path d="M477.28 251.494V243.232C473.104 243.151 468.784 241.678 466.264 239.633L467.992 234.153C470.987 236.397 474.618 237.629 478.36 237.67C483.472 237.67 486.928 234.316 486.928 229.654C486.928 225.155 484.12 222.375 478.792 219.921C471.448 216.649 466.912 212.886 466.912 205.77C466.912 198.981 471.16 193.828 477.784 192.601V184.34H482.248V192.274C485.577 192.32 488.824 193.313 491.609 195.137L489.808 200.535C487.138 198.707 483.973 197.737 480.736 197.754C475.192 197.754 473.104 201.517 473.104 204.789C473.104 209.042 475.768 211.169 482.032 214.113C489.448 217.549 493.193 221.802 493.193 229.082C493.193 235.543 489.233 241.597 481.816 242.986V251.494H477.28Z" fill="#F2F2F2"/>
<path d="M580 271H379V279H580V271Z" fill="white"/>
<path d="M574 271H385C381.686 271 379 273.686 379 277V279C379 282.314 381.686 285 385 285H574C577.314 285 580 282.314 580 279V277C580 273.686 577.314 271 574 271Z" fill="white"/>
<path d="M479 556.44C477.462 554.878 475.376 554 473.201 554C471.026 554 468.94 554.878 467.402 556.44C465.864 558.002 465 560.121 465 562.33C465 564.539 465.864 566.658 467.402 568.22L479 580L490.598 568.22C492.136 566.658 493 564.539 493 562.33C493 560.121 492.136 558.002 490.598 556.44C489.06 554.878 486.974 554 484.799 554C482.624 554 480.538 554.878 479 556.44Z" fill="#FF6584"/>
<defs>
<filter id="filter0_d" x="447" y="534" width="65" height="65" filterUnits="userSpaceOnUse" color-interpolation-filters="sRGB">
<feFlood flood-opacity="0" result="BackgroundImageFix"/>
<feColorMatrix in="SourceAlpha" type="matrix" values="0 0 0 0 0 0 0 0 0 0 0 0 0 0 0 0 0 0 127 0"/>
<feOffset dy="1"/>
<feGaussianBlur stdDeviation="0.5"/>
<feColorMatrix type="matrix" values="0 0 0 0 0 0 0 0 0 0 0 0 0 0 0 0 0 0 0.25 0"/>
<feBlend mode="normal" in2="BackgroundImageFix" result="effect1_dropShadow"/>
<feBlend mode="normal" in="SourceGraphic" in2="effect1_dropShadow" result="shape"/>
</filter>
<linearGradient id="paint0_linear" x1="633.219" y1="522.061" x2="633.585" y2="522.061" gradientUnits="userSpaceOnUse">
<stop stop-color="#808080" stop-opacity="0.25"/>
<stop offset="0.54" stop-color="#808080" stop-opacity="0.12"/>
<stop offset="1" stop-color="#808080" stop-opacity="0.1"/>
</linearGradient>
<linearGradient id="paint1_linear" x1="633.75" y1="522.513" x2="634.119" y2="522.513" gradientUnits="userSpaceOnUse">
<stop stop-color="#808080" stop-opacity="0.25"/>
<stop offset="0.54" stop-color="#808080" stop-opacity="0.12"/>
<stop offset="1" stop-color="#808080" stop-opacity="0.1"/>
</linearGradient>
<linearGradient id="paint2_linear" x1="633.75" y1="522.061" x2="634.119" y2="522.061" gradientUnits="userSpaceOnUse">
<stop stop-color="#808080" stop-opacity="0.25"/>
<stop offset="0.54" stop-color="#808080" stop-opacity="0.12"/>
<stop offset="1" stop-color="#808080" stop-opacity="0.1"/>
</linearGradient>
<clipPath id="clip0">
<rect width="397" height="181" fill="white" transform="translate(281 324)"/>
</clipPath>
<clipPath id="clip1">
<rect width="247" height="176" fill="white" transform="translate(371 325)"/>
</clipPath>
</defs>
</svg>
