<svg width="51" height="40" viewBox="0 0 51 40" fill="none" xmlns="http://www.w3.org/2000/svg">
<g clip-path="url(#clip0)">
<path d="M17.2374 39.9885C15.994 39.9405 14.5812 40.0893 13.1822 39.771C11.5793 39.4115 11.0298 38.9146 10.9909 37.3278C10.9096 35.0811 10.6855 32.8417 10.32 30.6234C10.2627 30.2387 10.2444 29.838 10.5215 29.5335C11.229 28.7481 10.7504 28.2924 10.0635 27.9306C8.57515 27.1567 7.06619 26.4217 5.57097 25.666C4.77266 25.2768 4.15745 24.5918 3.85593 23.7564C2.37494 19.7958 1.12942 15.7511 0.125897 11.6435C0.018868 11.2782 -0.0176549 10.8959 0.0182776 10.5169C0.19001 9.38806 0.744135 8.51794 1.90963 8.16761C3.01101 7.83788 3.84677 8.32331 4.5566 9.08352C5.14253 9.7391 5.6286 10.4775 5.99916 11.2748C6.51722 12.2531 6.97601 13.2617 7.37302 14.295C7.83097 15.63 8.44692 16.2024 10.0543 16.5253C15.1834 17.5557 18.8013 20.6469 20.4407 25.753C20.727 26.6461 20.8987 27.507 22.0207 27.752C22.5015 27.8573 22.6893 28.3267 22.7649 28.8122C23.1999 31.7133 23.6647 34.6099 24.0792 37.5133C24.2463 38.6788 23.5228 39.2512 22.5153 39.5741C20.8369 40.1168 19.1127 39.9679 17.2374 39.9885ZM13.3997 28.1046C14.8789 27.9627 16.3581 27.8436 17.8327 27.6742C18.9936 27.5391 19.0646 27.3147 18.6433 26.1721C17.1503 22.1192 14.0271 19.8683 10.1711 18.4189C9.71316 18.2472 9.25521 18.1189 8.98044 18.6639C8.64613 19.2959 9.23689 19.463 9.58036 19.692C10.6199 20.3927 11.6778 21.0659 12.7311 21.7528C13.1776 22.0505 13.4615 22.4397 13.189 23.0099C12.9166 23.5801 12.4357 23.722 11.8518 23.6167C9.56204 23.1931 6.81432 20.2622 6.56473 17.993C6.54859 17.6113 6.45347 17.237 6.28538 16.8939C5.25727 15.1422 4.62301 13.2303 3.78037 11.3985C3.50789 10.8054 3.23083 9.75671 2.33324 10.1528C1.5364 10.5032 1.93711 11.426 2.12945 12.1083C2.90339 14.856 3.8193 17.5786 4.44211 20.3629C4.91839 22.4947 5.98771 23.9052 7.98439 24.7616C9.69943 25.4966 11.403 26.3072 12.5845 27.8573C12.679 27.9768 12.8077 28.0645 12.9534 28.1087C13.0991 28.1529 13.2548 28.1515 13.3997 28.1046ZM13.0768 31.7477C15.5269 31.4454 17.9792 31.1523 20.4293 30.8318C20.846 30.7768 21.2971 30.644 21.1918 30.0555C21.0933 29.506 20.7178 29.4854 20.2392 29.5472C19.0348 29.7052 17.8212 29.8059 16.6145 29.9365C15.4078 30.067 14.2744 30.1975 13.1043 30.3188C12.5662 30.3761 12.4174 30.6967 12.4334 31.1844C12.4563 31.6103 12.6326 31.8278 13.0768 31.7477Z" fill="#0089C7"/>
<path d="M32.4941 39.9771C31.3492 39.9771 30.2043 40.0343 29.0594 39.9656C27.1452 39.8512 26.3392 38.807 26.5704 36.9248C26.891 34.3191 27.3581 31.7293 27.4131 29.0961C27.4291 28.2855 27.9122 27.8505 28.5969 27.5849C29.0823 27.3948 29.4441 27.1658 29.5403 26.5728C29.8425 24.702 30.8134 23.1564 32.059 21.7849C34.3167 19.3165 36.9385 17.2214 40.2724 16.7153C42.1042 16.436 42.7454 15.5269 43.3774 14.1233C44.0643 12.596 44.8726 11.1191 45.69 9.65596C46.5075 8.1928 47.8058 7.744 49.1522 8.2821C50.4596 8.81332 51.1465 10.178 50.739 11.6778C49.5941 15.9551 47.9157 20.0515 46.2281 24.1365C45.903 24.9241 45.1565 25.3088 44.4581 25.6958C43.1919 26.3827 41.9005 27.0513 40.6342 27.7566C39.8397 28.1985 39.455 28.8053 39.9335 29.7372C40.3113 30.4745 40.0228 31.237 39.9152 31.9835C39.6267 34.0168 39.329 36.0524 38.9993 38.0812C38.8344 39.1116 38.2208 39.6382 37.1538 39.7802C35.615 39.9908 34.0534 39.9405 32.4941 39.9771ZM36.4806 28.1779C36.7476 28.2112 37.0187 28.1834 37.2734 28.0966C37.528 28.0097 37.7596 27.866 37.9506 27.6765C39.2443 26.3827 40.8105 25.5378 42.5072 24.9035C43.1055 24.7019 43.6475 24.3612 44.0885 23.9094C44.5296 23.4576 44.8571 22.9076 45.0443 22.3047C45.3946 21.2559 45.864 20.2439 46.2487 19.2157C47.1509 16.784 48.037 14.3477 48.7423 11.8518C48.9071 11.268 49.2323 10.5444 48.5522 10.2032C47.8218 9.83685 47.6363 10.6955 47.3638 11.1191C46.0793 13.0517 45.0466 15.1445 43.9635 17.203C43.7506 17.6106 43.5285 18.0434 43.6017 18.5082C43.8445 20.0446 42.9744 20.9514 41.8249 21.675C40.8907 22.2634 39.9244 22.8038 38.9535 23.3328C38.3765 23.6487 37.7445 23.9739 37.282 23.1542C36.8195 22.3344 37.282 21.8467 37.9277 21.4758C38.8871 20.9285 39.8809 20.4408 40.838 19.8889C41.296 19.6233 41.8272 19.289 41.4585 18.6296C41.1265 18.0388 40.5999 18.2792 40.1419 18.4716C38.2391 19.2707 36.3867 20.182 34.7701 21.4803C33.0963 22.8198 32.1964 24.6517 31.6698 26.6964C31.5209 27.2757 31.711 27.5734 32.2857 27.6467L36.4806 28.1779ZM37.3072 31.7362C37.7537 31.853 38.0582 31.6927 38.1361 31.2279C38.2322 30.6532 37.9369 30.3853 37.385 30.3303C35.0449 30.0922 32.7047 29.8479 30.3646 29.5976C29.9066 29.5472 29.4487 29.3411 29.3525 30.0761C29.2563 30.7745 29.7418 30.8249 30.186 30.8798C32.5582 31.1775 34.9327 31.4523 37.3072 31.7362Z" fill="#0089C7"/>
<path d="M21.9337 7.02959C21.9326 5.81057 22.157 4.60186 22.5955 3.46442C23.3946 1.44713 24.8578 0.258743 27.0514 0.0412147C29.3617 -0.187762 31.1935 0.615947 32.3888 2.60118C32.8468 3.35909 33.2704 3.57891 34.1771 3.51709C38.5277 3.22858 41.3464 7.42115 39.5329 11.3687C38.8025 12.9715 37.5774 14.0706 36.0982 14.9339C33.7489 16.3077 31.1798 16.9512 28.5054 17.2809C26.8361 17.4847 25.6111 16.7657 24.7272 15.4216C22.9893 12.7792 22.2108 9.81625 21.9337 7.02959Z" fill="#0089C7"/>
<path d="M20.427 6.65636C20.0149 8.3943 19.5638 10.3956 18.4143 12.1518C18.2446 12.4321 17.9958 12.656 17.6992 12.7953C17.4026 12.9346 17.0715 12.9832 16.7474 12.9349C14.6431 12.7059 12.6258 12.1839 10.8947 10.8901C9.3285 9.71778 8.83391 8.25462 9.3514 6.60599C9.86201 5.00315 10.668 4.40781 12.3693 4.3872C12.9807 4.3872 13.5783 4.433 13.995 3.81476C15.1125 2.14551 16.5825 2.07453 17.9953 2.56225C19.36 3.03166 20.4247 4.74669 20.427 6.65636Z" fill="#0089C7"/>
</g>
<defs>
<clipPath id="clip0">
<rect width="50.8672" height="40" fill="white"/>
</clipPath>
</defs>
</svg>
