<svg width="43" height="43" viewBox="0 0 43 43" fill="none" xmlns="http://www.w3.org/2000/svg">
<g clip-path="url(#clip0)">
<path fill-rule="evenodd" clip-rule="evenodd" d="M20.7 -0.133333C9.20003 -0.133333 -0.133301 9.2 -0.133301 20.7C-0.133301 32.2 9.20003 41.5333 20.7 41.5333C32.2 41.5333 41.5334 32.2 41.5334 20.7C41.5334 9.2 32.2 -0.133333 20.7 -0.133333ZM22.7834 35.2833H18.6167V31.1167H22.7834V35.2833ZM27.0959 19.1375L25.2209 21.0542C23.7209 22.575 22.7834 23.825 22.7834 26.95H18.6167V25.9083C18.6167 23.6167 19.5542 21.5333 21.0542 20.0125L23.6375 17.3875C24.4084 16.6375 24.8667 15.5958 24.8667 14.45C24.8667 12.1583 22.9917 10.2833 20.7 10.2833C18.4084 10.2833 16.5334 12.1583 16.5334 14.45H12.3667C12.3667 9.84583 16.0959 6.11667 20.7 6.11667C25.3042 6.11667 29.0334 9.84583 29.0334 14.45C29.0334 16.2833 28.2834 17.95 27.0959 19.1375Z" fill="#0089C7"/>
</g>
<defs>
<clipPath id="clip0">
<rect width="43" height="43" fill="white"/>
</clipPath>
</defs>
</svg>
