<svg width="54" height="48" viewBox="0 0 54 48" fill="none" xmlns="http://www.w3.org/2000/svg">
<g clip-path="url(#clip0)" filter="url(#filter0_d)">
<path fill-rule="evenodd" clip-rule="evenodd" d="M30.2445 -6.08759e-06C18.9334 -0.311117 9.66676 8.77777 9.66676 20H5.68898C4.68898 20 4.20009 21.2 4.91121 21.8889L11.1112 28.1111C11.5557 28.5555 12.2445 28.5555 12.689 28.1111L18.889 21.8889C19.5779 21.2 19.089 20 18.089 20H14.1112C14.1112 11.3333 21.1779 4.33333 29.889 4.44444C38.1557 4.55555 45.1112 11.5111 45.2223 19.7778C45.3334 28.4667 38.3334 35.5555 29.6668 35.5555C26.089 35.5555 22.7779 34.3333 20.1557 32.2667C19.2668 31.5778 18.0223 31.6444 17.2223 32.4444C16.289 33.3778 16.3556 34.9555 17.4001 35.7555C20.7779 38.4222 25.0223 40 29.6668 40C40.889 40 49.9779 30.7333 49.6668 19.4222C49.3779 8.99999 40.6668 0.288883 30.2445 -6.08759e-06ZM29.1112 11.1111C28.2001 11.1111 27.4445 11.8667 27.4445 12.7778V20.9556C27.4445 21.7333 27.8668 22.4667 28.5334 22.8667L35.4668 26.9778C36.2668 27.4444 37.289 27.1778 37.7556 26.4C38.2223 25.6 37.9556 24.5778 37.1779 24.1111L30.7779 20.3111V12.7555C30.7779 11.8667 30.0223 11.1111 29.1112 11.1111Z" fill="#0089C7"/>
</g>
<defs>
<filter id="filter0_d" x="-1" y="0" width="54.6667" height="48" filterUnits="userSpaceOnUse" color-interpolation-filters="sRGB">
<feFlood flood-opacity="0" result="BackgroundImageFix"/>
<feColorMatrix in="SourceAlpha" type="matrix" values="0 0 0 0 0 0 0 0 0 0 0 0 0 0 0 0 0 0 127 0"/>
<feOffset dy="4"/>
<feGaussianBlur stdDeviation="2"/>
<feColorMatrix type="matrix" values="0 0 0 0 0 0 0 0 0 0 0 0 0 0 0 0 0 0 0.25 0"/>
<feBlend mode="normal" in2="BackgroundImageFix" result="effect1_dropShadow"/>
<feBlend mode="normal" in="SourceGraphic" in2="effect1_dropShadow" result="shape"/>
</filter>
<clipPath id="clip0">
<rect width="46.6667" height="40" fill="white" transform="translate(3)"/>
</clipPath>
</defs>
</svg>
