<svg width="45" height="45" viewBox="0 0 45 45" fill="none" xmlns="http://www.w3.org/2000/svg">
<path d="M25.3379 23.631H32.8731C33.0871 23.631 33.2924 23.716 33.4437 23.8673C33.595 24.0187 33.68 24.2239 33.68 24.4379V28.9496C33.68 29.1637 33.595 29.3691 33.4436 29.5205C33.2921 29.6719 33.0868 29.757 32.8726 29.757H25.3379C25.1238 29.757 24.9184 29.6719 24.767 29.5205C24.6156 29.3691 24.5305 29.1637 24.5305 28.9496V24.4384C24.5305 24.3324 24.5514 24.2274 24.592 24.1294C24.6326 24.0315 24.692 23.9425 24.767 23.8675C24.842 23.7925 24.931 23.733 25.029 23.6925C25.1269 23.6519 25.2319 23.631 25.3379 23.631Z" fill="#0089C7"/>
<path d="M37.1908 20.7913C37.017 20.7913 36.8433 20.784 36.6714 20.7693V25.1402H36.6787V36.19C36.6796 36.2561 36.6845 36.322 36.6933 36.3875H20.4936C20.4862 34.8714 20.4936 25.3121 20.4862 23.7832L12.3461 23.8838V36.3875H8.30626C8.31504 36.322 8.31993 36.2561 8.32089 36.19V25.1402H8.3282V20.7693C8.15629 20.784 7.98255 20.7913 7.80882 20.7913C6.94819 20.7916 6.09622 20.6194 5.30333 20.2847L5.27771 39.0028H39.6944L39.6962 20.2865C38.9031 20.6203 38.0512 20.7919 37.1908 20.7913Z" fill="#0089C7"/>
<path d="M44.3776 15.927L41.0806 5.99725H3.91933L0.622378 15.927C0.622378 15.927 0.575269 15.927 0.622378 15.9291C2.10299 15.9615 3.5201 16.5367 4.6044 17.5455C4.85185 17.7934 5.12781 18.0112 5.42649 18.1942C6.29466 18.7304 7.31836 18.9581 8.33199 18.8404C9.34562 18.7227 10.2899 18.2664 11.012 17.5455C11.9447 16.6401 13.152 16.0707 14.4439 15.927H15.7712C17.0782 16.075 18.3019 16.6429 19.2587 17.5455C20.1238 18.3948 21.2876 18.8707 22.5 18.8707C23.7123 18.8707 24.8762 18.3948 25.7413 17.5455C26.698 16.6429 27.9218 16.075 29.2287 15.927H30.5561C31.8479 16.0707 33.0553 16.6401 33.9879 17.5455C34.7101 18.2664 35.6543 18.7227 36.668 18.8404C37.6816 18.9581 38.7053 18.7304 39.5735 18.1942C39.8721 18.0112 40.1481 17.7934 40.3955 17.5455C41.4799 16.5367 42.897 15.9615 44.3776 15.9291C44.4247 15.927 44.3776 15.927 44.3776 15.927Z" fill="#0089C7"/>
</svg>
