<svg width="50" height="50" viewBox="0 0 50 50" fill="none" xmlns="http://www.w3.org/2000/svg">
<path d="M5 44.9997H23.1818V26.8177H5V44.9997ZM8.63607 30.4544H19.5453V41.3354H8.63607V30.4544Z" fill="#0089C7"/>
<path d="M15.909 34.0905H12.2727V37.7273H15.909V34.0905Z" fill="#0089C7"/>
<path d="M37.7273 41.3636H34.0901V45H37.7273V41.3636Z" fill="#0089C7"/>
<path d="M45 41.3636H41.3629V45H45V41.3636Z" fill="#0089C7"/>
<path d="M41.3632 30.4544H37.7271V26.8177H26.8176V44.9997H30.4543V34.0905H34.0901V37.7273H44.9996V26.8177H41.3632V30.4544Z" fill="#0089C7"/>
<path d="M5 23.1822H23.1818V5H5V23.1822ZM8.63607 8.63607H19.5453V19.5453H8.63607V8.63607Z" fill="#0089C7"/>
<path d="M15.909 12.2726H12.2727V15.9092H15.909V12.2726Z" fill="#0089C7"/>
<path d="M26.8176 5V23.1822H44.9999V5H26.8176ZM41.3632 19.5453H30.4543V8.63607H41.3632V19.5453Z" fill="#0089C7"/>
<path d="M37.7273 12.2726H34.0901V15.9092H37.7273V12.2726Z" fill="#0089C7"/>
</svg>
