<svg width="40" height="40" viewBox="0 0 40 40" fill="none" xmlns="http://www.w3.org/2000/svg">
<g clip-path="url(#clip0)">
<path d="M20.0001 1.6664L25.0001 15H38.3337L28.3337 25L31.6665 38.3328L20.0001 29.9992L8.33369 38.3328L11.6665 25L1.6665 15H15.0001L20.0001 1.6664Z" fill="white"/>
<path d="M31.6663 39.9998C31.3187 39.9993 30.9799 39.89 30.6976 39.6873L19.9999 32.0475L9.30223 39.6873C9.02477 39.8843 8.69367 39.9916 8.3534 39.995C8.01314 39.9983 7.68001 39.8974 7.39875 39.7059C7.1175 39.5143 6.90158 39.2413 6.78001 38.9235C6.65843 38.6057 6.63702 38.2583 6.71864 37.9279L9.82333 25.51L0.488171 16.1779C0.254933 15.9449 0.096053 15.648 0.0316335 15.3247C-0.0327859 15.0013 0.000150588 14.6661 0.126276 14.3615C0.252401 14.0569 0.466046 13.7966 0.740178 13.6134C1.01431 13.4303 1.33661 13.3326 1.6663 13.3326H13.8444L18.4374 1.08108C18.5564 0.763295 18.7696 0.489423 19.0485 0.29608C19.3274 0.102737 19.6586 -0.000860691 19.9979 -0.000860691C20.3373 -0.000860691 20.6685 0.102737 20.9474 0.29608C21.2263 0.489423 21.4395 0.763295 21.5585 1.08108L26.153 13.3326H38.3335C38.6632 13.3326 38.9855 13.4303 39.2596 13.6134C39.5337 13.7966 39.7474 14.0569 39.8735 14.3615C39.9996 14.6661 40.0326 15.0013 39.9682 15.3247C39.9037 15.648 39.7449 15.9449 39.5116 16.1779L30.1788 25.5108L33.2811 37.9279C33.3428 38.1736 33.3476 38.43 33.2953 38.6778C33.2429 38.9255 33.1348 39.1581 32.9792 39.3578C32.8235 39.5575 32.6244 39.7192 32.3969 39.8304C32.1694 39.9417 31.9195 39.9996 31.6663 39.9998ZM19.9999 28.3326C20.3475 28.3332 20.6862 28.4425 20.9686 28.6451L28.9515 34.3483L26.7186 25.4037C26.6488 25.1245 26.6524 24.832 26.7292 24.5546C26.8061 24.2772 26.9534 24.0244 27.1569 23.8209L34.3116 16.6662H24.9999C24.6603 16.6666 24.3288 16.5632 24.0495 16.37C23.7703 16.1768 23.5567 15.9029 23.4374 15.585L19.9999 6.41311L16.5624 15.585C16.4431 15.9029 16.2295 16.1768 15.9503 16.37C15.671 16.5632 15.3395 16.6666 14.9999 16.6662H5.69052L12.8452 23.8209C13.0483 24.0247 13.1952 24.2775 13.2716 24.5549C13.348 24.8323 13.3513 25.1247 13.2811 25.4037L11.0483 34.3451L19.0311 28.642C19.3139 28.4405 19.6526 28.3323 19.9999 28.3326Z" fill="#0089C7"/>
</g>
<defs>
<clipPath id="clip0">
<rect width="40" height="40" fill="white"/>
</clipPath>
</defs>
</svg>
