<svg width="50" height="38" viewBox="0 0 50 38" fill="none" xmlns="http://www.w3.org/2000/svg">
<g clip-path="url(#clip0)">
<path d="M21.7976 25.5856C22.1808 25.5856 22.5449 25.7689 22.7714 26.0757L27.4821 32.4565C27.841 32.9427 28.3973 33.2002 28.9613 33.2002C29.3371 33.2002 29.7164 33.0856 30.0429 32.8482C30.859 32.2543 31.0357 31.116 30.4375 30.3056L25.7268 23.9249C24.8126 22.6868 23.3437 21.9476 21.7976 21.9476H21.4524V25.5856H21.7976V25.5856Z" fill="#0089C7"/>
<path d="M15.4776 16.2111C15.3368 14.8916 15.4408 13.8321 15.2665 12.6509C15.1533 10.8353 14.0474 9.57564 12.5557 9.65692C11.0638 9.73861 9.34599 11.151 9.38215 13.8645C9.39833 14.7145 9.43957 15.4868 9.5111 16.2186C9.56112 16.2145 9.6113 16.211 9.66238 16.211H15.4776V16.2111Z" fill="#0089C7"/>
<path d="M29.4267 34.5185L32.5186 32.6245L32.23 32.1602L29.1381 34.0542C28.6018 34.3828 27.8939 34.2419 27.5265 33.7339L23.0324 27.5217C22.6445 26.9857 22.0818 26.6075 21.4524 26.4397C21.3147 26.403 21.174 26.376 21.031 26.3601V18.0238C21.031 17.2549 20.401 16.6294 19.6267 16.6294H9.66237C8.888 16.6294 8.25803 17.255 8.25803 18.0238V18.5225L7.87813 17.6424L6.7476 15.0234C6.31676 14.0251 5.19806 13.495 4.14483 13.7908L2.39722 14.282L2.64681 15.157L4.39434 14.6658C5.0049 14.4944 5.65528 14.8019 5.90559 15.3815L7.83664 19.855L8.10622 20.4796C8.16199 20.4785 8.2177 20.4742 8.27348 20.4742C12.2488 20.4742 15.7349 23.1033 16.8134 26.8877H20.4814V27.9465V29.0054H17.1468C17.153 29.1876 17.1546 29.3695 17.1494 29.5511H20.4814V29.9695V32.6089C20.2746 32.554 20.0584 32.522 19.8342 32.522C18.4513 32.522 17.3303 33.635 17.3303 35.0079C17.3303 36.3809 18.4514 37.4939 19.8342 37.4939C21.2171 37.4939 22.3382 36.3809 22.3382 35.0079C22.3382 34.2444 21.9908 33.5621 21.4452 33.106C21.432 33.3831 21.3825 33.6542 21.2954 33.9139C21.5273 34.2185 21.6664 34.5967 21.6664 35.0079C21.6664 36.0126 20.8461 36.8269 19.8342 36.8269C18.8224 36.8269 18.0021 36.0126 18.0021 35.0079C18.0021 34.0033 18.8224 33.1889 19.8342 33.1889C20.0518 33.1889 20.2596 33.2285 20.4532 33.2976C20.4037 33.596 20.2889 33.88 20.1126 34.1319L19.9978 34.296C19.945 34.2841 19.8906 34.2764 19.8342 34.2764C19.4278 34.2764 19.0974 34.6045 19.0974 35.0079C19.0974 35.4114 19.4278 35.7395 19.8342 35.7395C20.2405 35.7395 20.5712 35.4114 20.5712 35.0079C20.5712 34.8598 20.5259 34.7223 20.4494 34.607L20.5639 34.4433C20.8695 34.0066 21.031 33.4946 21.031 32.9629V30.5749V29.9694V29.5511V27.9465V26.9114C21.1752 26.9313 21.3158 26.9655 21.4524 27.0115C21.9025 27.163 22.3025 27.4482 22.586 27.84L27.0801 34.0522C27.4202 34.5224 27.9605 34.7764 28.5095 34.7764C28.8244 34.7764 29.1423 34.6928 29.4267 34.5185ZM8.80766 19.3454V18.0238C8.80766 17.7135 8.97803 17.4444 9.22902 17.2964C9.34681 17.2269 9.48174 17.1847 9.62694 17.1786C9.7136 17.7747 9.82687 18.3516 9.97063 18.9271H16.1019C15.8767 18.2847 15.7249 17.7066 15.622 17.1751H19.6267C19.7855 17.1751 19.9325 17.2212 20.06 17.2964C20.311 17.4444 20.4814 17.7135 20.4814 18.0238V19.3454H8.80766Z" fill="#0089C7"/>
<path d="M16.2754 27.2033C15.1181 22.8234 10.587 20.1948 6.17549 21.3443C4.03845 21.901 2.24782 23.2506 1.13313 25.1445C0.0186375 27.0384 -0.286416 29.2499 0.274314 31.3716C1.24783 35.0557 4.60796 37.5004 8.2762 37.5004C8.96915 37.5004 9.67303 37.4132 10.374 37.2306C12.5111 36.674 14.3019 35.3244 15.4166 33.4305C16.5311 31.5365 16.8362 29.325 16.2754 27.2033ZM15.3391 27.2592L9.55643 28.7657C9.51041 28.6539 9.45149 28.5502 9.38047 28.4571L13.629 24.2827C14.4079 25.1012 15.0047 26.1098 15.3391 27.2592ZM9.11919 29.0675C9.24154 29.5305 8.9627 30.0043 8.49638 30.1257C8.03007 30.2472 7.55286 29.9704 7.43049 29.5074C7.30814 29.0445 7.58698 28.5707 8.0533 28.4492C8.5196 28.3277 8.99682 28.6045 9.11919 29.0675ZM8.80054 30.5598C8.91311 30.5141 9.01747 30.4556 9.11124 30.3851L13.3184 34.6058C12.4776 35.3939 11.4557 35.9744 10.3177 36.3004L8.80054 30.5598ZM1.11817 30.9639C0.845487 29.8195 0.853109 28.6505 1.13191 27.5362L6.90102 29.103C6.88519 29.2187 6.8851 29.3378 6.90029 29.4576L1.11817 30.9639ZM7.74918 28.0151C7.63659 28.0608 7.53223 28.1193 7.43845 28.1898L3.2313 23.9692C4.07216 23.181 5.09408 22.6005 6.23203 22.2745L7.74918 28.0151ZM13.3704 24.0249L9.12179 28.1993C9.02718 28.1269 8.92379 28.0669 8.81375 28.0206L10.3909 22.2962C11.506 22.6309 12.5291 23.2247 13.3704 24.0249ZM8.27352 21.9841C8.87478 21.9841 9.4666 22.0585 10.0377 22.1995L8.46071 27.9235C8.34415 27.9078 8.22429 27.9077 8.10363 27.9227L6.58684 22.1835C7.15095 22.0513 7.71603 21.9841 8.27352 21.9841ZM2.97139 24.2255L7.17887 28.4465C7.10589 28.5404 7.04549 28.6431 6.99891 28.7523L1.22932 27.1854C1.39574 26.6393 1.62688 26.1084 1.92417 25.6033C2.22145 25.0982 2.57383 24.6376 2.97139 24.2255ZM1.21113 31.3156L6.99327 29.8093C7.03931 29.9211 7.09822 30.0247 7.16921 30.1178L2.91803 34.2948C2.12416 33.46 1.53949 32.4454 1.21113 31.3156ZM3.17637 34.553L7.42789 30.3756C7.52247 30.4481 7.62587 30.5081 7.73591 30.5543L6.15779 36.2824C5.60765 36.1172 5.07292 35.8877 4.56415 35.5926C4.05534 35.2974 3.59144 34.9476 3.17637 34.553ZM6.51096 36.379L8.08895 30.6514C8.20553 30.6671 8.32539 30.6672 8.44609 30.6522L9.96322 36.3928C8.81065 36.6634 7.63326 36.6558 6.51096 36.379ZM13.5783 34.3494L9.37082 30.1284C9.44381 30.0345 9.50425 29.9318 9.55081 29.8225L15.3204 31.3894C15.154 31.9356 14.9229 32.4664 14.6256 32.9715C14.3283 33.4767 13.9759 33.9373 13.5783 34.3494ZM15.4178 31.0386L9.64864 29.4719C9.66444 29.3562 9.66453 29.2372 9.64938 29.1174L15.4316 27.6111C15.7042 28.7554 15.6966 29.9243 15.4178 31.0386Z" fill="#0089C7"/>
<path d="M17.8404 10.7064C20.1171 10.7064 21.9627 8.874 21.9627 6.61362C21.9627 4.35324 20.1171 2.52084 17.8404 2.52084C15.5637 2.52084 13.718 4.35324 13.718 6.61362C13.718 8.874 15.5637 10.7064 17.8404 10.7064Z" fill="#0089C7"/>
<path d="M42.5153 25.7559H42.8499V36.1546H40.6514C40.3239 36.1546 40.0559 36.4206 40.0559 36.7457C40.0559 37.0709 40.3239 37.3369 40.6514 37.3369H46.5142C46.8417 37.3369 47.1097 37.0709 47.1097 36.7457C47.1097 36.4206 46.8417 36.1546 46.5142 36.1546H44.3157V25.7559H47.98C48.6098 25.7559 49.125 25.2443 49.125 24.619C49.125 24.2372 48.9323 23.8985 48.6393 23.692C47.6168 24.0813 46.2 24.5503 44.4882 24.9417L42.5153 25.7559Z" fill="#0089C7"/>
<path d="M37.5285 25.7414C36.5713 25.7414 35.5811 25.694 34.5655 25.589C34.5646 25.5946 34.5628 25.5999 34.5619 25.6055L33.1025 35.5907C32.9572 36.585 33.6512 37.508 34.6525 37.6522C34.7418 37.665 34.8305 37.6712 34.918 37.6712C35.8133 37.6714 36.5964 37.019 36.7288 36.1133L38.0389 27.1501L42.4136 25.3447C40.9251 25.5839 39.2831 25.7414 37.5285 25.7414Z" fill="#0089C7"/>
<path d="M35.6894 8.17902C37.9507 7.92231 39.572 5.88863 39.3099 3.63731C39.0478 1.38592 37.0016 -0.230561 34.7401 0.0269386C32.4789 0.283983 30.8573 2.31698 31.1196 4.56881C31.382 6.81986 33.4279 8.4365 35.6894 8.17902Z" fill="#0089C7"/>
<path d="M29.0149 18.3514L30.5898 17.7668C30.6635 17.5205 30.7045 17.2603 30.7045 16.9902C30.7045 15.4859 25.2175 15.4859 25.2175 16.9902C25.2175 18.4946 26.4458 19.7141 27.961 19.7141C27.9658 19.7141 27.9704 19.7134 27.9752 19.7133C28.028 19.1177 28.4142 18.5743 29.0149 18.3514ZM25.7993 16.8772C25.7993 16.5583 26.7671 16.2998 27.961 16.2998C29.1549 16.2998 30.1228 16.5583 30.1228 16.8772C30.1228 17.1962 29.1549 17.4547 27.961 17.4547C26.7671 17.4547 25.7993 17.1962 25.7993 16.8772Z" fill="#0089C7"/>
<path d="M35.9328 13.2742C35.9478 13.3359 35.9629 13.398 35.9782 13.4609C36.0247 13.6516 36.0723 13.8477 36.1194 14.0482L37.7843 10.8034C38.061 10.264 38.612 9.92902 39.2219 9.92902C39.4742 9.92902 39.7268 9.98932 39.9528 10.1036C40.7449 10.5041 41.0612 11.4699 40.6577 12.2565L37.6524 18.1141C37.4687 18.4719 37.1589 18.7464 36.7802 18.8869L36.4652 19.0038C36.2124 20.7331 35.4923 22.705 33.9042 24.9634C42.1156 26.0318 48.7681 23.1122 50 22.526C49.4627 20.8452 45.8502 10.0743 40.9547 8.13056C39.7498 7.65271 38.5903 7.74526 37.4097 8.41515C36.74 8.79499 36.2926 9.18757 36.0067 9.60689L35.0403 10.6995L33.7028 12.2118L28.0917 10.1508C27.9594 10.1022 27.8195 10.0773 27.6785 10.0773H26.6549C26.1399 10.0773 25.7025 10.4025 25.5364 10.8569H23.1222C22.9249 10.7359 22.5541 10.6541 22.1282 10.6541C21.4958 10.6541 20.9832 10.834 20.9832 11.0558C20.9832 11.2777 21.4958 11.6849 22.1282 11.6849C22.6408 11.6849 23.0746 11.4174 23.2206 11.1979H25.4672C25.4661 11.2185 25.464 11.2388 25.464 11.2597C25.464 11.9127 25.9972 12.442 26.6549 12.442H27.4652L33.6442 14.7115C33.779 14.7611 33.9187 14.7851 34.0571 14.7851C34.3934 14.7851 34.7217 14.6435 34.9523 14.3829L35.4894 13.7757L35.9328 13.2742ZM22.1282 11.1903C21.6539 11.1903 21.2694 11.1064 21.2694 11.0027C21.2694 10.8991 21.6539 10.8152 22.1282 10.8152C22.6025 10.8152 22.987 10.8991 22.987 11.0027C22.987 11.1064 22.6025 11.1903 22.1282 11.1903Z" fill="#0089C7"/>
<path d="M36.6328 18.495C36.9119 18.3914 37.1417 18.1878 37.2769 17.9241L40.2823 12.0666C40.5807 11.4848 40.3478 10.7728 39.7616 10.4764C39.1757 10.1801 38.4585 10.4112 38.1599 10.9933L35.3648 16.441L29.1625 18.7432C28.5465 18.9719 28.2337 19.6531 28.464 20.2648C28.6431 20.74 29.0972 21.0334 29.5797 21.0334C29.7182 21.0334 29.8592 21.0092 29.9966 20.9582L36.6328 18.495Z" fill="#0089C7"/>
</g>
<defs>
<clipPath id="clip0">
<rect width="50" height="37.6712" fill="white"/>
</clipPath>
</defs>
</svg>
