<svg width="146" height="149" viewBox="0 0 146 149" fill="none" xmlns="http://www.w3.org/2000/svg">
<path d="M63.5123 4.04678C62.5275 4.86307 61.8326 5.90967 60.7512 6.64616C59.4489 7.53542 57.7392 7.87289 56.1493 8.34944C54.5593 8.82599 52.928 9.57388 52.2883 10.8713C51.7453 11.9817 52.0582 13.27 51.598 14.4055C51.1033 15.6117 49.8194 16.4577 48.8369 17.4313C46.8949 19.3512 46.032 21.9916 46.5359 24.4542C46.8834 26.1575 47.8337 27.7308 48.3974 29.393C49.0877 31.4269 49.1843 33.5589 49.2809 35.668C49.4604 39.6287 49.6376 43.6281 48.7379 47.5249C48.5078 48.503 47.8866 63.3765 46.6832 63.3469C49.8769 63.0756 53.089 63.0459 56.2988 63.014L104.389 62.558C102.173 59.685 100.758 42.7069 100.288 39.3209C99.4785 33.4836 101.439 27.6396 101.669 21.7636C101.701 21.0066 101.701 20.2291 101.386 19.5177C101.055 18.772 100.392 18.1359 100.171 17.3629C99.8536 16.257 100.491 15.1238 100.512 13.9883C100.553 11.7081 98.2107 9.95923 96.3538 8.26963C94.5637 6.64388 93.075 4.79695 91.2273 3.21224C89.3796 1.62753 87.058 0.284514 84.4165 0.0405367C82.2467 -0.157837 80.0907 0.400802 78.0129 0.952601C75.5348 1.60929 73.1809 2.43926 70.5509 2.39822C67.6494 2.34806 65.8616 2.58747 63.5123 4.04678Z" fill="#2F2E41"/>
<g opacity="0.1">
<path opacity="0.1" d="M96.3318 13.1192C96.3986 13.3704 96.4957 13.6125 96.6211 13.8402C96.5901 13.3236 96.4648 12.817 96.2514 12.3455C96.2415 12.6059 96.2685 12.8664 96.3318 13.1192Z" fill="black"/>
<path opacity="0.1" d="M49.7933 49.9867L49.5269 50.0096C49.6163 50.0115 49.7055 50.0038 49.7933 49.9867Z" fill="black"/>
</g>
<path d="M99.5743 132.522C99.2808 132.749 98.9304 132.891 98.5614 132.933C92.675 134.136 86.7356 135.164 80.7341 135.489C75.4393 135.778 70.1285 135.519 64.8314 135.26C59.5343 135.001 54.2418 134.74 49.0714 133.673C51.2136 129.377 52.5626 124.732 53.0539 119.959C53.2714 117.865 53.3245 115.757 53.2128 113.654C53.1957 113.401 53.165 113.149 53.1207 112.9C52.8744 111.391 52.2666 109.206 52.8191 108.114C53.5282 106.711 56.2515 106.665 57.5821 106.404C59.8428 105.961 62.1149 105.592 64.3963 105.283C73.4503 104.056 82.5965 103.776 91.7196 103.503C92.9443 103.467 94.4039 103.549 95.0415 104.592C95.3983 105.177 95.3799 105.906 95.3615 106.592C95.3201 108.076 95.3347 109.56 95.4053 111.045C95.7253 117.626 97.1395 124.109 99.5904 130.229C99.8943 130.979 100.173 131.961 99.5743 132.522Z" fill="#FBBEBE"/>
<path d="M64.0004 50.777C63.0589 51.9788 61.7323 52.7862 60.3966 53.4955C58.8011 54.3495 57.1577 55.1038 55.4752 55.7544C55.1351 56.2887 55.4054 56.9981 55.7005 57.5675C58.3425 62.8831 61.8787 68.1662 67.2123 70.4506C69.9489 71.6174 72.9513 71.9091 75.9019 72.1821C76.8209 72.2661 77.7578 72.3501 78.6543 72.1214C79.5507 71.8927 80.3841 71.3397 81.1319 70.754C86.0186 66.9229 89.2366 61.238 90.0783 54.9493C90.1503 54.3916 90.1503 53.7079 89.6886 53.4092C89.4071 53.2295 89.0489 53.2645 88.7178 53.2669C86.5578 53.2902 84.6433 51.6334 83.6455 49.6523C82.6477 47.6712 82.3819 45.3867 82.1364 43.1629C82.1364 43.1139 69.4376 42.8362 68.2912 42.8269C66.5028 42.8105 65.9127 43.0275 65.7392 44.927C65.5568 47.0225 65.3316 49.0689 64.0004 50.777Z" fill="#FBBEBE"/>
<path opacity="0.1" d="M64.0004 50.777C63.0589 51.9788 61.7323 52.7862 60.3966 53.4955C58.8011 54.3495 57.1577 55.1038 55.4752 55.7544C55.1351 56.2887 55.4054 56.9981 55.7005 57.5675C58.3425 62.8831 61.8787 68.1662 67.2123 70.4506C69.9489 71.6174 72.9513 71.9091 75.9019 72.1821C76.8209 72.2661 77.7578 72.3501 78.6543 72.1214C79.5507 71.8927 80.3841 71.3397 81.1319 70.754C86.0186 66.9229 89.2366 61.238 90.0783 54.9493C90.1503 54.3916 90.1503 53.7079 89.6886 53.4092C89.4071 53.2295 89.0489 53.2645 88.7178 53.2669C86.5578 53.2902 84.6433 51.6334 83.6455 49.6523C82.6477 47.6712 82.3819 45.3867 82.1364 43.1629C82.1364 43.1139 69.4376 42.8362 68.2912 42.8269C66.5028 42.8105 65.9127 43.0275 65.7392 44.927C65.5568 47.0225 65.3316 49.0689 64.0004 50.777Z" fill="black"/>
<path d="M74.0534 48.1792C83.9086 48.1792 91.8977 40.3898 91.8977 30.781C91.8977 21.1723 83.9086 13.3828 74.0534 13.3828C64.1983 13.3828 56.2091 21.1723 56.2091 30.781C56.2091 40.3898 64.1983 48.1792 74.0534 48.1792Z" fill="#FBBEBE"/>
<path d="M87.2073 51.548C87.4018 54.0497 60.8412 56.3916 59.8389 53.3062C59.244 54.0173 58.1524 54.0752 57.2829 53.7694C56.4133 53.4637 55.681 52.8753 54.8573 52.4422C53.4843 51.7171 51.9374 51.4484 50.4156 51.1867C47.9374 50.7628 45.0587 50.4524 43.2234 52.192C42.5896 52.7919 42.1571 53.5818 41.5209 54.1841C40.4088 55.2311 38.8367 55.5577 37.4019 56.0372C35.331 56.7321 33.4225 57.8439 31.466 58.8168C26.8976 61.0937 22.0269 62.687 17.0061 63.5469C15.9375 63.7299 14.8619 63.8781 13.8024 64.1352C12.315 64.4966 10.8276 65.1151 9.8139 66.2756C10.9993 67.809 12.7018 68.6452 14.5301 69.2498L32.1731 75.0871C34.8276 75.965 37.5232 76.8614 39.8459 78.4342C43.7154 81.0471 46.2326 85.3417 47.6101 89.8378C48.9877 94.3339 49.3424 99.0778 49.6856 103.773C49.8344 105.814 49.9694 107.943 49.1776 109.833C53.2872 110.323 57.4432 110.254 61.5346 109.627C65.4728 109.02 69.3675 107.894 73.3515 107.931C77.6993 107.975 81.9121 109.402 86.1981 110.173C90.4842 110.945 95.2141 110.968 98.8251 108.505C98.0562 107.456 97.9395 105.957 97.9098 104.656L97.8182 98.4871C97.7774 97.7426 97.8266 96.9958 97.9647 96.2634C98.2713 94.9431 99.134 93.8358 99.6855 92.6012C100.75 90.2177 100.601 87.4936 100.66 84.8784C100.72 82.2632 101.081 79.4534 102.827 77.5401C103.972 76.2916 105.573 75.5828 107.198 75.145C109.976 74.3945 112.882 74.3458 115.752 74.1397C125.107 73.4607 134.26 71.0479 142.754 67.0214C142.246 65.9351 141.065 65.3189 139.987 64.8139C137.438 63.621 134.738 62.3979 131.942 62.6643C130.589 62.794 129.251 63.2712 127.903 63.0975C126.626 62.9307 125.495 62.1987 124.255 61.849C123.315 61.5849 122.331 61.5455 121.365 61.3973C119.136 61.0521 117.045 60.1233 114.983 59.2037L109.775 56.8873C108.402 56.2734 106.972 55.6179 106.029 54.4319C105.722 54.0451 105.475 53.6096 105.141 53.2459C104.566 52.6228 103.768 52.2545 102.969 51.9974C101.966 51.6439 100.896 51.5252 99.8411 51.6499C99.1173 51.7955 98.4028 51.985 97.7015 52.2175C94.2599 53.1579 90.7084 52.1804 87.2073 51.548Z" fill="#00B0FF"/>
<path d="M107.065 144.485C97.7449 146.826 88.251 148.337 78.6859 149H78.67H54.6544H54.6407C50.3429 148.694 46.1072 148.227 41.9336 147.598C43.1652 143.767 44.8626 140.118 46.9842 136.739C47.3236 136.261 47.5891 135.73 47.771 135.166C47.8709 134.641 47.922 134.107 47.9233 133.572C48.034 131.932 48.6426 130.372 49.6607 129.119C50.1336 129.388 50.6112 129.647 51.0933 129.896C56.5551 132.731 62.5031 134.399 68.5894 134.803C71.7909 134.974 75.0001 134.907 78.1925 134.601C85.3919 133.995 92.8779 132.598 98.6766 128.161C98.9199 127.976 99.161 127.784 99.3997 127.586C102.217 130.2 103.848 134.206 105.014 137.951C105.708 140.142 106.349 142.328 107.065 144.485Z" fill="#2F2E41"/>
<path opacity="0.1" d="M74.2164 129.371C74.0514 129.82 74.011 130.294 74.0982 130.758C74.1854 131.222 74.3979 131.663 74.7195 132.047C74.9343 131.646 74.998 131.198 74.9022 130.765C74.8064 130.332 74.5557 129.934 74.1833 129.624L74.2164 129.371Z" fill="black"/>
<path d="M64.1176 55.351C65.0291 54.8674 66.0135 54.4386 67.052 54.425C68.612 54.4113 70.0075 55.3373 71.1634 56.3591C72.232 57.2962 73.1987 58.3371 74.0485 59.4657C74.4714 60.0245 74.8755 60.638 74.9389 61.3291C75.0023 62.0202 74.6123 62.798 73.9169 62.9622C73.4777 63.0342 73.0265 62.9456 72.6506 62.7136C71.0436 61.856 69.8525 59.8922 68.0293 60.0838C66.7794 60.2138 65.9337 61.3428 65.25 62.3647C64.6415 63.277 64.0259 64.2144 63.7534 65.2682C63.4809 66.322 63.6124 67.5491 64.3689 68.3428C64.9563 68.9655 65.8138 69.2552 66.615 69.5791C68.387 70.2911 70.0092 71.3131 71.4007 72.5944C72.075 73.2193 72.7164 73.9629 72.8103 74.8752C72.9043 75.7876 72.1925 76.7912 71.2621 76.7273C70.8426 76.6636 70.447 76.4963 70.1132 76.2415C68.4311 75.1626 66.7137 74.0313 64.7402 73.6344C62.7314 73.2307 60.6569 73.6344 58.6317 73.9355C56.4108 74.2579 54.1788 74.4875 51.9359 74.6243C51.2702 74.6985 50.5962 74.656 49.946 74.4989C47.7281 73.8329 47.0821 71.0935 47.3405 69.1138C47.6154 66.9971 49.22 66.5158 50.8975 65.4644C55.6151 62.4673 59.1157 57.9968 64.1176 55.351Z" fill="#FBBEBE"/>
<path d="M80.9649 55.351C80.0802 54.8674 79.1294 54.4386 78.1219 54.425C76.6116 54.4113 75.2606 55.3373 74.1416 56.3591C73.1079 57.2963 72.1727 58.3372 71.3508 59.4657C70.9437 60.0245 70.5525 60.638 70.4911 61.3291C70.4297 62.0202 70.805 62.798 71.4782 62.9622C71.9042 63.0341 72.3416 62.9456 72.7064 62.7136C74.2621 61.856 75.4153 59.8922 77.178 60.0838C78.3902 60.2138 79.2091 61.3428 79.8686 62.3647C80.4577 63.277 81.0559 64.2144 81.3175 65.2682C81.579 66.322 81.4539 67.5491 80.7216 68.3428C80.1552 68.9655 79.3228 69.2552 78.5472 69.5791C76.8312 70.2914 75.26 71.3134 73.9119 72.5944C73.2591 73.2193 72.6404 73.9629 72.5472 74.8752C72.4539 75.7876 73.1454 76.7912 74.0461 76.7273C74.4523 76.664 74.8353 76.4966 75.1582 76.2415C76.7868 75.1626 78.4494 74.0313 80.3599 73.6344C82.3046 73.2307 84.3129 73.6344 86.2735 73.9355C88.4183 74.2731 90.5813 74.508 92.7489 74.638C93.3941 74.7121 94.0473 74.6696 94.6776 74.5126C96.8224 73.8466 97.4479 71.1072 97.2 69.1274C96.9316 67.0108 95.3804 66.5295 93.7542 65.478C89.1962 62.4673 85.8095 57.9968 80.9649 55.351Z" fill="#FBBEBE"/>
<path d="M61.7525 24.0181C62.8028 22.4494 64.0501 20.7478 65.7546 20.5661C68.1343 20.3113 69.9936 23.123 72.3616 23.4864C75.4095 23.9561 78.4059 20.2692 81.2709 21.6164C82.6776 22.281 83.728 24.1245 85.2566 24.089C86.314 24.0669 87.1745 23.1296 87.8755 22.2101C89.0585 20.6598 90.1053 19.0207 91.0055 17.3091C88.0959 14.1562 83.864 13.4361 79.9134 12.8623L73.2713 11.8985C71.6723 11.6658 70.0452 11.4354 68.4556 11.7567C67.0183 12.0469 65.6773 12.7781 64.376 13.5469C62.8239 14.4686 59.1735 15.9487 58.2216 17.6636C57.5581 18.8534 58.4701 19.4073 59.3259 20.606C60.1308 21.7434 60.9397 22.8808 61.7525 24.0181Z" fill="#2F2E41"/>
<path opacity="0.1" d="M52.1536 64.2391C49.3464 64.7926 46.4796 64.9941 43.6212 64.8391C42.4996 64.7804 41.3733 64.6654 40.2562 64.7692C38.9084 64.8955 37.6131 65.3353 36.2996 65.6556C29.4942 67.3088 22.3827 65.6939 15.4357 64.7872C14.209 64.6271 12.9548 64.4895 11.7395 64.7241C10.627 64.9383 9.59896 65.4526 8.61436 66.0051C7.01907 66.9008 5.49206 67.9102 4.04547 69.0252C2.53088 70.1935 1.00258 71.6821 0.8975 73.5744C0.806122 75.2028 1.81128 76.7027 3.02889 77.8101C6.31849 80.8166 11.2026 81.721 15.6071 80.9068C17.2816 80.5978 18.9149 80.0656 20.6077 79.8806C22.3416 79.6912 24.0938 79.8806 25.8368 79.7994C29.3777 79.6438 32.7678 78.4281 36.2059 77.5823C41.5748 76.2625 47.1286 75.8326 52.6402 76.3102C52.5923 76.3307 52.5403 76.3405 52.4881 76.3389C52.4359 76.3372 52.3847 76.3242 52.3382 76.3007C52.2917 76.2772 52.251 76.2438 52.2191 76.2029C52.1872 76.1621 52.1648 76.1148 52.1536 76.0644C51.7493 74.9637 51.7287 73.7661 51.7356 72.5955C51.7539 69.7559 51.8886 67.0675 52.1536 64.2391Z" fill="black"/>
<path d="M51.2614 64.2391C48.4542 64.8217 45.5874 65.0339 42.729 64.8707C41.6074 64.8089 40.4811 64.6879 39.364 64.7971C38.0162 64.93 36.7209 65.393 35.4074 65.7301C28.602 67.4703 21.4905 65.7705 14.5435 64.8161C13.3168 64.6475 12.0626 64.5027 10.8473 64.7496C9.73475 64.9751 8.70675 65.5164 7.72215 66.0981C6.12686 67.0409 4.59984 68.1034 3.15326 69.2771C1.63867 70.5069 0.110373 72.0738 0.00528847 74.0657C-0.0860894 75.7799 0.919064 77.3587 2.13667 78.5244C5.42628 81.6891 10.3104 82.6411 14.7148 81.7841C16.3893 81.4588 18.0227 80.8985 19.7155 80.7038C21.4494 80.5044 23.2016 80.7038 24.9446 80.6184C28.4855 80.4546 31.8756 79.1749 35.3137 78.2846C40.6826 76.8953 46.2364 76.4428 51.748 76.9456C51.7001 76.9671 51.6481 76.9774 51.5959 76.9757C51.5437 76.9739 51.4925 76.9602 51.446 76.9355C51.3995 76.9107 51.3588 76.8756 51.3269 76.8326C51.295 76.7896 51.2726 76.7398 51.2614 76.6868C50.8571 75.5282 50.8365 74.2675 50.8434 73.0353C50.8616 70.0463 50.9964 67.2163 51.2614 64.2391Z" fill="#00B0FF"/>
<path opacity="0.1" d="M93.6821 63.528C97.1879 64.3197 105.626 64.6687 109.219 64.5501C110.859 64.4999 112.494 64.3539 114.135 64.3584C116.946 64.3584 119.752 64.8148 122.556 64.6299C126.179 64.3835 129.738 63.0625 133.352 63.4025C135.128 63.5713 136.837 64.1326 138.53 64.6938C140.223 65.2551 142.068 65.8894 143.259 67.2537C144.363 68.5177 144.766 70.2197 145.132 71.8533C145.336 72.7659 145.541 73.7081 145.362 74.623C145.019 76.3593 143.406 77.5343 141.858 78.4104C140.018 79.4507 137.998 80.3451 135.877 80.2972C134.619 80.2698 133.395 79.9093 132.197 79.5352C128.762 78.4651 125.252 77.2536 121.664 77.5206C119.154 77.7122 116.647 78.6294 114.178 78.1343C112.727 77.8423 111.418 77.0802 110.038 76.5737C106.674 75.3531 98.1379 75.6771 94.5724 76.0148C94.7794 74.0275 94.7541 72.0244 94.9611 70.0349C95.1221 68.5131 95.2763 66.9366 94.784 65.4855C94.4757 64.6163 94.3722 64.144 93.6821 63.528Z" fill="black"/>
<path d="M93.6821 63.528C97.1879 64.3197 105.626 64.6687 109.219 64.5501C110.859 64.4999 112.494 64.3539 114.135 64.3584C116.946 64.3584 119.752 64.8148 122.556 64.6299C126.179 64.3835 129.738 63.0625 133.352 63.4025C135.128 63.5713 136.837 64.1326 138.53 64.6938C140.223 65.2551 142.068 65.8894 143.259 67.2537C144.363 68.5177 144.766 70.2197 145.132 71.8533C145.336 72.7659 145.541 73.7081 145.362 74.623C145.019 76.3593 143.406 77.5343 141.858 78.4104C140.018 79.4507 137.998 80.3451 135.877 80.2972C134.619 80.2698 133.395 79.9093 132.197 79.5352C128.762 78.4651 125.252 77.2536 121.664 77.5206C119.154 77.7122 116.647 78.6294 114.178 78.1343C112.727 77.8423 111.418 77.0802 110.038 76.5737C106.674 75.3531 98.1379 75.6771 94.5724 76.0148C94.7794 74.0275 94.7541 72.0244 94.9611 70.0349C95.1221 68.5131 95.2763 66.9366 94.784 65.4855C94.4757 64.6163 94.3722 64.144 93.6821 63.528Z" fill="#00B0FF"/>
<path d="M57.6232 28.8287C57.0815 28.6937 56.8731 28.0391 56.3847 27.7759C55.8962 27.5126 55.2851 27.7206 54.9332 28.112C54.6064 28.5263 54.4293 29.0309 54.4286 29.5497C54.3851 30.6685 54.7042 31.7728 55.3423 32.7118C55.9804 33.6508 56.9063 34.3787 57.9935 34.7961C57.5095 32.7827 57.3225 30.7146 57.438 28.6517L57.6232 28.8287Z" fill="#FBBEBE"/>
<path d="M91.3782 28.8287C91.9199 28.6937 92.1259 28.0391 92.6144 27.7759C93.1028 27.5126 93.7139 27.7206 94.0658 28.112C94.3937 28.5258 94.571 29.0307 94.5704 29.5497C94.6139 30.6685 94.2948 31.7728 93.6568 32.7118C93.0187 33.6508 92.0928 34.3787 91.0055 34.7961C91.4895 32.7827 91.6765 30.7146 91.5611 28.6517L91.3782 28.8287Z" fill="#FBBEBE"/>
<g opacity="0.1">
<path opacity="0.1" d="M69.1191 79.5366C69.5569 81.1372 69.7694 82.7909 69.7505 84.4502C69.7505 87.3363 69.1834 89.855 68.3384 91.2074C68.2673 91.8503 68.1869 92.4886 68.1088 93.1154C69.3005 92.197 70.1753 89.18 70.1753 85.5982C70.1661 83.1506 69.7574 80.9671 69.1191 79.5366Z" fill="black"/>
</g>
<g opacity="0.1">
<path opacity="0.1" d="M75.5871 79.5366C75.1484 81.137 74.9351 82.7908 74.9534 84.4502C74.9534 87.3363 75.5228 89.855 76.3677 91.2074C76.4389 91.8503 76.517 92.4886 76.5973 93.1154C75.4057 92.197 74.5309 89.18 74.5309 85.5982C74.5286 83.1506 74.9373 80.9671 75.5871 79.5366Z" fill="black"/>
</g>
<path opacity="0.1" d="M87.8764 21.1196C87.1732 22.0338 86.3153 22.9656 85.2582 22.9876C83.7277 23.0228 82.6799 21.1945 81.2736 20.5292C78.421 19.1899 75.4326 22.8554 72.3667 22.3884C69.9994 22.0271 68.1477 19.2317 65.7616 19.4851C64.0575 19.6657 62.8106 21.3575 61.7605 22.9171C60.9479 21.7878 60.1362 20.657 59.3252 19.5247C58.8564 18.8639 58.3478 18.3902 58.1204 17.9012C57.6657 18.9498 58.5189 19.5049 59.3252 20.6261C60.1315 21.7474 60.9472 22.8885 61.7605 24.0185C62.8106 22.4589 64.0575 20.7671 65.7616 20.5865C68.1406 20.3332 69.9994 23.1286 72.3667 23.4898C75.4138 23.9568 78.4093 20.2913 81.2736 21.6306C82.6799 22.2915 83.73 24.1243 85.2582 24.089C86.3153 24.067 87.1756 23.1352 87.8764 22.221C89.059 20.6797 90.1056 19.05 91.0055 17.3483C90.8789 17.2117 90.7477 17.0795 90.6141 16.9518C89.8057 18.3992 88.8909 19.7918 87.8764 21.1196Z" fill="black"/>
</svg>
