<svg width="86" height="92" viewBox="0 0 86 92" fill="none" xmlns="http://www.w3.org/2000/svg">
<path d="M85.5023 -0.000488281V80.9406C74.3319 87.6335 60.6699 91.569 45.9185 91.569C26.2668 91.569 11.2763 84.1439 0.00012207 72.7695V-0.000488281H85.5023Z" fill="white"/>
<path d="M8.22404 39.4383C12.7008 38.0147 17.3456 37.1868 22.0386 36.9761C24.3902 36.8761 26.746 36.9682 29.0826 37.2516C31.3966 37.5576 33.6827 38.0469 35.9192 38.7149C38.1288 39.3545 40.308 40.0934 42.5102 40.7574C44.7473 41.4405 47.0217 41.9953 49.3221 42.4192C51.6105 42.8332 53.9218 43.1086 56.2434 43.2439C58.5424 43.3775 60.8638 43.4036 63.1563 43.1587C65.2976 42.9526 67.3949 42.4211 69.3759 41.5825C71.2234 40.7765 72.9309 39.6816 74.4341 38.339C74.8092 38.0042 75.1702 37.6547 75.5168 37.2904C75.7214 37.0767 75.3968 36.7512 75.1918 36.9654C72.2613 40.028 68.4095 41.9269 64.2317 42.5611C61.9558 42.9065 59.6364 42.9266 57.3404 42.8375C54.9931 42.7469 52.6536 42.5106 50.3356 42.1299C48.0455 41.7502 45.7801 41.2347 43.5513 40.5861C41.362 39.952 39.2024 39.2209 37.0208 38.5617C34.82 37.8708 32.5732 37.3357 30.2973 36.9603C28.0148 36.6127 25.7077 36.4526 23.3991 36.4816C18.7859 36.5553 14.2024 37.2339 9.76582 38.5C9.2086 38.6564 8.65393 38.8214 8.10183 38.9952C7.8205 39.0833 7.94062 39.5271 8.22403 39.4383H8.22404Z" fill="#3F3D56"/>
<path d="M8.22404 51.0809C12.7008 49.6573 17.3456 48.8294 22.0386 48.6187C24.3902 48.5187 26.746 48.6108 29.0826 48.8942C31.3966 49.2001 33.6827 49.6894 35.9192 50.3575C38.1288 50.997 40.308 51.7359 42.5102 52.4C44.7473 53.083 47.0217 53.6379 49.3221 54.0618C51.6105 54.4758 53.9218 54.7512 56.2434 54.8865C58.5424 55.0201 60.8638 55.0462 63.1563 54.8013C65.2976 54.5952 67.3949 54.0637 69.3759 53.2251C71.2234 52.4191 72.9309 51.3242 74.4341 49.9816C74.8092 49.6468 75.1702 49.2973 75.5168 48.933C75.7214 48.7192 75.3968 48.3938 75.1918 48.608C72.2613 51.6706 68.4095 53.5695 64.2317 54.2037C61.9558 54.5491 59.6364 54.5691 57.3404 54.4801C54.9931 54.3895 52.6536 54.1532 50.3356 53.7725C48.0455 53.3928 45.7801 52.8773 43.5513 52.2287C41.362 51.5946 39.2024 50.8635 37.0208 50.2043C34.82 49.5134 32.5732 48.9783 30.2973 48.6029C28.0148 48.2553 25.7077 48.0952 23.3991 48.1242C18.7859 48.1979 14.2024 48.8765 9.76582 50.1425C9.2086 50.299 8.65393 50.464 8.10183 50.6377C7.8205 50.7259 7.94062 51.1697 8.22403 51.0809H8.22404Z" fill="#3F3D56"/>
<path d="M8.22404 28.8683C12.7008 27.4446 17.3456 26.6168 22.0386 26.406C24.3902 26.306 26.746 26.3982 29.0826 26.6815C31.3966 26.9875 33.6827 27.4768 35.9192 28.1448C38.1288 28.7844 40.308 29.5233 42.5102 30.1873C44.7473 30.8704 47.0217 31.4252 49.3221 31.8492C51.6105 32.2632 53.9218 32.5386 56.2434 32.6739C58.5424 32.8075 60.8638 32.8335 63.1563 32.5887C65.2976 32.3826 67.3949 31.8511 69.3759 31.0125C71.2234 30.2065 72.9309 29.1116 74.4341 27.7689C74.8092 27.4342 75.1702 27.0846 75.5168 26.7203C75.7214 26.5066 75.3968 26.1811 75.1918 26.3954C72.2613 29.4579 68.4095 31.3569 64.2317 31.991C61.9558 32.3365 59.6364 32.3565 57.3404 32.2674C54.9931 32.1769 52.6536 31.9406 50.3356 31.5599C48.0455 31.1802 45.7801 30.6647 43.5513 30.016C41.362 29.3819 39.2024 28.6509 37.0208 27.9917C34.82 27.3008 32.5732 26.7656 30.2973 26.3902C28.0148 26.0426 25.7077 25.8825 23.3991 25.9115C18.7859 25.9853 14.2024 26.6639 9.76582 27.9299C9.2086 28.0863 8.65393 28.2514 8.10183 28.4251C7.8205 28.5133 7.94062 28.9571 8.22403 28.8683H8.22404Z" fill="#3F3D56"/>
<path d="M7.67638 8.88328C8.78858 8.39068 10.0627 8.47658 11.2169 8.7622C12.4615 9.07017 13.6335 9.60577 14.8587 9.97609C17.0517 10.6293 19.3812 10.6735 21.5974 10.1039C22.8451 9.78571 24.0357 9.27553 25.1266 8.5916C25.3764 8.43458 25.146 8.03676 24.8945 8.19477C22.95 9.40867 20.7024 10.0493 18.4099 10.043C17.2602 10.0413 16.1168 9.87294 15.0153 9.54327C13.7991 9.17869 12.6365 8.64938 11.4044 8.33544C10.099 8.00283 8.69916 7.9307 7.44437 8.48645C7.17444 8.606 7.40805 9.00212 7.67638 8.88328Z" fill="#3F3D56"/>
<path d="M41.8318 79.3518C45.7247 79.3518 48.8804 76.1969 48.8804 72.305C48.8804 68.4132 45.7247 65.2583 41.8318 65.2583C37.939 65.2583 34.7833 68.4132 34.7833 72.305C34.7833 76.1969 37.939 79.3518 41.8318 79.3518Z" fill="#3F3D56"/>
</svg>
