<svg width="21" height="21" viewBox="0 0 21 21" fill="none" xmlns="http://www.w3.org/2000/svg">
<path d="M8.39997 15.7419C10.1907 15.7419 11.8186 15.107 13.0883 14.0326L18.786 19.7302C18.9162 19.8605 19.079 19.9256 19.2581 19.9256C19.4372 19.9256 19.6 19.8605 19.7302 19.7302C19.9907 19.4698 19.9907 19.0465 19.7302 18.786L14.0325 13.0884C15.0907 11.8186 15.7418 10.1744 15.7418 8.4C15.7418 4.34651 12.4535 1.05814 8.39997 1.05814C4.36276 1.05814 1.05811 4.36279 1.05811 8.4C1.05811 12.4535 4.36276 15.7419 8.39997 15.7419ZM8.39997 2.39302C11.7209 2.39302 14.4069 5.09535 14.4069 8.4C14.4069 11.7209 11.7209 14.407 8.39997 14.407C5.07904 14.407 2.39299 11.7046 2.39299 8.4C2.39299 5.09535 5.09531 2.39302 8.39997 2.39302Z" fill="#0089C7"/>
</svg>
