<svg width="124" height="109" viewBox="0 0 124 109" fill="none" xmlns="http://www.w3.org/2000/svg">
<path d="M104.244 95.8279L90.1821 85.6944C94.9245 80.9873 99.2379 74.2849 103.363 66.7067L117.424 76.8401C111.806 83.3419 107.046 89.7227 104.244 95.8279Z" fill="#00B0FF"/>
<path d="M104.743 84.5553C107.077 84.5553 108.97 82.6626 108.97 80.328C108.97 77.9933 107.077 76.1007 104.743 76.1007C102.408 76.1007 100.515 77.9933 100.515 80.328C100.515 82.6626 102.408 84.5553 104.743 84.5553Z" fill="white"/>
<path d="M35.5004 49.7976H34.0153C33.9631 49.7976 33.913 49.8169 33.8761 49.8512C33.8392 49.8855 33.8185 49.932 33.8185 49.9805V50.5861C33.8185 50.6101 33.8235 50.6339 33.8334 50.6561C33.8433 50.6783 33.8578 50.6985 33.8761 50.7155C33.8944 50.7324 33.9161 50.7459 33.94 50.7551C33.9639 50.7643 33.9895 50.769 34.0153 50.769H34.2614V51.6764H35.2543V50.769H35.5004C35.5526 50.769 35.6026 50.7498 35.6396 50.7155C35.6765 50.6812 35.6972 50.6346 35.6972 50.5861V49.9805C35.6972 49.932 35.6765 49.8855 35.6396 49.8512C35.6026 49.8169 35.5526 49.7976 35.5004 49.7976Z" fill="#E6E6E6"/>
<path d="M36.4768 55.7827C35.5671 54.4313 35.1021 52.8223 35.1483 51.1862C35.1492 51.1485 35.1371 51.1116 35.1142 51.0819C35.0913 51.0521 35.0589 51.0313 35.0226 51.0231V50.7371H33.454V51.0191H33.4324C33.4112 51.0191 33.3903 51.0234 33.3708 51.0316C33.3513 51.0398 33.3335 51.0519 33.3186 51.0671C33.3037 51.0823 33.2918 51.1003 33.2838 51.1202C33.2757 51.14 33.2716 51.1613 33.2716 51.1827C33.2716 51.1867 33.2717 51.1906 33.272 51.1946C33.4168 52.8641 32.9732 54.5316 32.0201 55.9C31.965 55.9798 31.9368 56.0755 31.9399 56.1729L32.1114 61.5597C32.1155 61.6799 32.1652 61.7938 32.25 61.8776C32.3349 61.9615 32.4483 62.0088 32.5668 62.0098H36.1148C36.2346 62.0088 36.3492 61.9604 36.4343 61.8748C36.5194 61.7893 36.5683 61.6734 36.5705 61.5518L36.6366 56.3217C36.6385 56.1297 36.5828 55.9417 36.4768 55.7827Z" fill="#00B0FF"/>
<path d="M35.6972 56.3734H32.879V59.1916H35.6972V56.3734Z" fill="white"/>
<path d="M85.0913 71.4037H82.1213C82.0168 71.4037 81.9167 71.4422 81.8428 71.5108C81.769 71.5794 81.7275 71.6725 81.7275 71.7695V72.9807C81.7275 73.0777 81.769 73.1708 81.8428 73.2394C81.9167 73.308 82.0168 73.3465 82.1213 73.3465H82.6135V75.1613H84.5991V73.3465H85.0913C85.1958 73.3465 85.2959 73.308 85.3698 73.2394C85.4436 73.1708 85.4851 73.0777 85.4851 72.9807V71.7695C85.4851 71.6725 85.4436 71.5794 85.3698 71.5108C85.2959 71.4422 85.1958 71.4037 85.0913 71.4037Z" fill="#E6E6E6"/>
<path d="M87.9836 82.9533C86.1643 80.3632 85.2343 77.2793 85.3267 74.1434C85.3284 74.071 85.3042 74.0003 85.2584 73.9433C85.2126 73.8863 85.1479 73.8465 85.0753 73.8306V73.2825H81.938V73.823H81.8948C81.8525 73.8231 81.8106 73.8312 81.7716 73.847C81.7326 73.8628 81.6971 73.8859 81.6673 73.915C81.6374 73.9442 81.6137 73.9787 81.5976 74.0168C81.5815 74.0548 81.5732 74.0955 81.5733 74.1366C81.5733 74.1442 81.5736 74.1518 81.5742 74.1594C81.8213 77.5117 80.9867 80.5179 79.0703 83.1781C78.96 83.331 78.9037 83.5146 78.9098 83.7012L79.2528 94.0259C79.2611 94.2562 79.3604 94.4745 79.5301 94.6352C79.6998 94.7959 79.9267 94.8867 80.1636 94.8885H87.2597C87.4992 94.8866 87.7285 94.7938 87.8987 94.6299C88.0689 94.4659 88.1666 94.2437 88.171 94.0107L88.3032 83.9863C88.3071 83.6183 88.1956 83.258 87.9836 82.9533Z" fill="#00B0FF"/>
<path opacity="0.2" d="M84.5457 71.4037C84.5457 71.6528 84.4467 71.8918 84.2706 72.0679C84.0944 72.2441 83.8555 72.3431 83.6063 72.3431C83.3572 72.3431 83.1182 72.2441 82.9421 72.0679C82.7659 71.8918 82.6669 71.6528 82.6669 71.4037" fill="black"/>
<path d="M86.7238 86.4341H80.4889C80.3966 86.4341 80.3054 86.4532 80.2215 86.4901C80.1376 86.5271 80.0631 86.581 80.003 86.6481C79.9429 86.7152 79.8987 86.794 79.8733 86.8791C79.848 86.9641 79.8421 87.0534 79.8562 87.1408L80.7984 93.0098H86.2085L87.3529 87.1606C87.3702 87.072 87.367 86.9808 87.3434 86.8936C87.3198 86.8063 87.2764 86.7251 87.2163 86.6558C87.1563 86.5864 87.081 86.5306 86.9959 86.4923C86.9107 86.4539 86.8178 86.4341 86.7238 86.4341Z" fill="white"/>
<path d="M77.0306 95.828H59.1821C60.4299 89.1298 60.1428 81.0415 59.1821 72.3431H77.0306C76.0953 81.0416 75.8159 89.1298 77.0306 95.828Z" fill="#00B0FF"/>
<path d="M68.1063 87.3734C70.441 87.3734 72.3336 85.4808 72.3336 83.1461C72.3336 80.8114 70.441 78.9188 68.1063 78.9188C65.7716 78.9188 63.879 80.8114 63.879 83.1461C63.879 85.4808 65.7716 87.3734 68.1063 87.3734Z" fill="white"/>
<path d="M4.6972 22.5552L8.71564 22.1794L11.273 15.7917L6.70653 13.1613L4.6972 22.5552Z" fill="#FFB8B8"/>
<path d="M41.169 39.0399C41.3041 38.7204 41.3572 38.3751 41.3239 38.0324C41.2906 37.6897 41.1719 37.3593 40.9775 37.0686C40.7831 36.778 40.5186 36.5352 40.2059 36.3604C39.8931 36.1856 39.541 36.0838 39.1785 36.0633L32.8687 35.7067L31.9396 38.6351L38.4353 40.3261C38.978 40.4674 39.5567 40.4144 40.0609 40.1771C40.5651 39.9399 40.9595 39.5351 41.169 39.0399Z" fill="#FFB8B8"/>
<path d="M34.7578 40.4037L34.6886 34.8644L20.7092 32.7275L9.93979 20.8947C9.37946 20.2791 8.60521 19.8789 7.76046 19.7682C6.91571 19.6575 6.05773 19.8439 5.34545 20.2929C4.91419 20.5647 4.5505 20.9239 4.2801 21.3452C4.0097 21.7665 3.83919 22.2395 3.78061 22.7309C3.72203 23.2222 3.77682 23.7199 3.9411 24.1888C4.10538 24.6576 4.37515 25.0861 4.73133 25.4441L13.616 35.9189L34.7578 40.4037Z" fill="#575A89"/>
<path d="M1.87903 103.343H5.41557L14.1875 63.4484L23.2751 75.7728L28.5799 102.454H31.9396L31.2323 73.8161L19.3849 43.2219H7.71432C4.52505 49.0279 2.0232 55.0129 4.88509 61.1871L1.87903 103.343Z" fill="#2F2E41"/>
<path d="M26.346 106.339C26.3062 106.459 26.2941 106.587 26.3102 106.712C26.3264 106.837 26.3705 106.958 26.4397 107.065C26.5088 107.173 26.6014 107.266 26.7113 107.337C26.8212 107.408 26.9459 107.457 27.077 107.479L35.8676 108.957C36.215 109.017 36.5736 108.955 36.8758 108.782C37.1781 108.609 37.403 108.337 37.5084 108.018C37.6108 107.713 37.5965 107.383 37.468 107.087C37.3394 106.79 37.1048 106.547 36.8054 106.398C34.8725 105.458 33.2091 104.087 31.9575 102.404C30.9914 103.256 29.9115 103.176 28.7648 102.548L27.5486 102.692L26.346 106.339Z" fill="#2F2E41"/>
<path d="M0.042923 106.339C0.00320286 106.459 -0.00898678 106.587 0.00716966 106.712C0.0233261 106.837 0.0674551 106.958 0.13662 107.065C0.205785 107.173 0.298399 107.266 0.408294 107.337C0.51819 107.408 0.642844 107.457 0.773961 107.479L9.56455 108.957C9.91191 109.017 10.2705 108.955 10.5728 108.782C10.875 108.609 11.1 108.337 11.2053 108.018C11.3078 107.713 11.2935 107.383 11.1649 107.087C11.0364 106.79 10.8018 106.547 10.5023 106.398C8.56948 105.458 6.90601 104.087 5.65447 102.404C4.68833 103.256 3.60848 103.176 2.4618 102.548L1.24554 102.692L0.042923 106.339Z" fill="#2F2E41"/>
<path d="M11.273 17.8583C13.8671 17.8583 15.97 15.7554 15.97 13.1613C15.97 10.5673 13.8671 8.46436 11.273 8.46436C8.67892 8.46436 6.57602 10.5673 6.57602 13.1613C6.57602 15.7554 8.67892 17.8583 11.273 17.8583Z" fill="#FFB8B8"/>
<path d="M6.78487 44.1612L19.7275 43.8126L15.9265 32.0507C18.2887 28.3275 15.9114 24.6081 12.547 20.8895L9.88755 19.1463L5.63243 18.7976C3.79013 20.7359 2.78208 23.2998 2.81942 25.9525C2.90367 31.6327 3.92662 37.8163 6.78487 44.1612Z" fill="#575A89"/>
<path d="M36.9444 52.852C37.1859 52.5829 37.3666 52.2537 37.4716 51.8915C37.5766 51.5293 37.6029 51.1445 37.5483 50.7688C37.4936 50.3931 37.3597 50.0372 37.1574 49.7305C36.9552 49.4238 36.6904 49.1751 36.385 49.0048L31.0679 46.04L29.1215 48.6344L34.0784 53.0324C34.4926 53.3999 35.0137 53.5846 35.5423 53.5514C36.0708 53.5181 36.5699 53.2691 36.9444 52.852Z" fill="#FFB8B8"/>
<path d="M30.7061 51.6765L32.879 46.4828L21.1103 39.1439L16.1549 23.988C15.897 23.1994 15.359 22.53 14.6404 22.1038C13.9218 21.6775 13.0713 21.5233 12.2465 21.6697C11.7472 21.7584 11.2736 21.9544 10.8593 22.244C10.4449 22.5336 10.1 22.9097 9.84874 23.3456C9.59752 23.7815 9.44617 24.2667 9.4054 24.7669C9.36463 25.2671 9.43543 25.77 9.61279 26.2401L13.4133 39.4086L30.7061 51.6765Z" fill="#575A89"/>
<path d="M2.81842 10.8239C2.81842 12.8216 4.14903 15.9155 5.82738 17.2417C6.95662 18.134 8.44899 18.0965 9.02439 16.875C9.61465 15.622 11.6493 12.6766 15.2304 10.8239C20.0042 8.35402 13.5374 4.12847 9.02439 4.77278C5.63309 5.25695 2.81842 7.48195 2.81842 10.8239Z" fill="#2F2E41"/>
<path d="M6.1063 8.46425C7.92214 8.46425 9.39418 6.78192 9.39418 4.70667C9.39418 2.63142 7.92214 0.949097 6.1063 0.949097C4.29045 0.949097 2.81842 2.63142 2.81842 4.70667C2.81842 6.78192 4.29045 8.46425 6.1063 8.46425Z" fill="#2F2E41"/>
<path d="M9.80928 3.76734C9.80894 2.82002 9.47555 1.90785 8.87594 1.21364C8.27633 0.519436 7.4548 0.0944943 6.57602 0.0239928C6.66287 0.017045 6.74968 0.00976562 6.83818 0.00976562C7.76522 0.00976562 8.65429 0.405651 9.30981 1.11033C9.96533 1.81501 10.3336 2.77077 10.3336 3.76734C10.3336 4.76391 9.96533 5.71966 9.30981 6.42434C8.65429 7.12902 7.76522 7.52492 6.83818 7.52492C6.74968 7.52492 6.66287 7.51763 6.57602 7.51068C7.4548 7.44018 8.27632 7.01524 8.87593 6.32103C9.47555 5.62683 9.80894 4.71466 9.80928 3.76734Z" fill="#2F2E41"/>
<path d="M11.273 15.04C11.7918 15.04 12.2123 14.6195 12.2123 14.1006C12.2123 13.5818 11.7918 13.1613 11.273 13.1613C10.7541 13.1613 10.3336 13.5818 10.3336 14.1006C10.3336 14.6195 10.7541 15.04 11.273 15.04Z" fill="#FFB8B8"/>
<path d="M112.728 96.7673H57.4088L45.6945 41.026H35.6972V38.5249H47.7086L59.4229 94.266H112.728V96.7673Z" fill="#3F3D56"/>
<path d="M65.2881 107.101C68.1416 107.101 70.4548 104.788 70.4548 101.934C70.4548 99.0807 68.1416 96.7675 65.2881 96.7675C62.4347 96.7675 60.1215 99.0807 60.1215 101.934C60.1215 104.788 62.4347 107.101 65.2881 107.101Z" fill="#3F3D56"/>
<path d="M105.682 107.101C108.536 107.101 110.849 104.788 110.849 101.934C110.849 99.0807 108.536 96.7675 105.682 96.7675C102.829 96.7675 100.515 99.0807 100.515 101.934C100.515 104.788 102.829 107.101 105.682 107.101Z" fill="#3F3D56"/>
<path d="M112.336 95.828H57.5719L47.9093 48.8583H121.404C121.779 48.8583 122.149 48.9383 122.49 49.0926C122.831 49.2469 123.133 49.472 123.377 49.7524C123.621 50.0327 123.8 50.3617 123.902 50.7166C124.004 51.0715 124.027 51.444 123.969 51.8084L114.901 93.6706C114.807 94.2729 114.497 94.8221 114.026 95.218C113.555 95.614 112.955 95.8305 112.336 95.828ZM58.1666 95.1174H112.336C112.783 95.1192 113.216 94.963 113.556 94.6772C113.895 94.3914 114.119 93.995 114.187 93.5603L123.255 51.6981C123.297 51.4351 123.281 51.1662 123.207 50.91C123.133 50.6538 123.004 50.4164 122.828 50.214C122.652 50.0117 122.434 49.8492 122.188 49.7378C121.942 49.6265 121.674 49.5688 121.404 49.5688H48.7862L58.1666 95.1174Z" fill="#3F3D56"/>
<path d="M67.9104 95.828L62.0002 48.9752L62.6658 48.8583L68.576 95.7111L67.9104 95.828Z" fill="#3F3D56"/>
<path d="M103.078 95.828L102.394 95.7123L108.286 48.8583L108.97 48.974L103.078 95.828Z" fill="#3F3D56"/>
<path d="M86.4245 48.8583H85.4851V95.828H86.4245V48.8583Z" fill="#3F3D56"/>
<path d="M51.7416 61.5089L51.7399 62.2252L121.099 62.3931L121.1 61.6768L51.7416 61.5089Z" fill="#3F3D56"/>
<path d="M116.206 83.6374L55.2727 84.0538L55.2776 84.7702L116.211 84.3538L116.206 83.6374Z" fill="#3F3D56"/>
<path d="M36.1669 41.3431C38.5016 41.3431 40.3942 40.502 40.3942 39.4644C40.3942 38.4267 38.5016 37.5856 36.1669 37.5856C33.8323 37.5856 31.9396 38.4267 31.9396 39.4644C31.9396 40.502 33.8323 41.3431 36.1669 41.3431Z" fill="#3F3D56"/>
</svg>
